<?xml version="1.0" standalone="no"?>
<!DOCTYPE svg PUBLIC "-//W3C//DTD SVG 20010904//EN"
 "http://www.w3.org/TR/2001/REC-SVG-20010904/DTD/svg10.dtd">
<svg version="1.0" xmlns="http://www.w3.org/2000/svg"
 width="1899.000000pt" height="905.000000pt" viewBox="0 0 1899.000000 905.000000"
 preserveAspectRatio="xMidYMid meet">

<g transform="translate(0.000000,905.000000) scale(0.100000,-0.100000)"
fill="#000000" stroke="none">
<path d="M16969 8825 c-14 -7 -34 -30 -44 -49 l-20 -36 -101 0 c-100 0 -102 0
-108 25 -6 23 -11 25 -54 23 l-47 -1 41 -4 c45 -4 41 2 89 -165 l16 -58 94 0
93 0 11 31 c8 24 15 30 28 24 62 -27 121 -11 153 40 64 104 -45 228 -151 170z
m97 -61 c14 -20 15 -33 8 -62 -7 -31 -14 -38 -38 -40 -37 -5 -48 8 -50 56 -1
69 47 97 80 46z m-156 -57 c0 -12 7 -33 16 -45 13 -18 13 -29 4 -57 l-12 -35
-83 0 -84 0 -15 53 c-8 28 -18 64 -21 80 l-7 27 101 0 c98 0 101 -1 101 -23z"/>
<path d="M17007 8748 c-9 -34 3 -68 23 -68 22 0 33 29 24 64 -8 32 -39 35 -47
4z"/>
<path d="M13083 8813 c15 -2 39 -2 55 0 15 2 2 4 -28 4 -30 0 -43 -2 -27 -4z"/>
<path d="M12974 8756 c-24 -24 -44 -52 -43 -62 0 -18 1 -18 9 1 12 31 63 83
91 94 19 8 20 10 5 10 -10 1 -38 -19 -62 -43z"/>
<path d="M13192 8786 c16 -8 34 -18 40 -21 7 -4 2 3 -11 14 -13 12 -31 21 -40
21 -10 0 -5 -6 11 -14z"/>
<path d="M13250 8755 c0 -5 5 -17 10 -25 5 -8 10 -10 10 -5 0 6 -5 17 -10 25
-5 8 -10 11 -10 5z"/>
<path d="M13041 8714 c-25 -31 -27 -61 -6 -91 14 -20 13 -23 -15 -46 -17 -14
-30 -29 -30 -33 0 -4 11 2 24 15 21 19 32 22 102 19 l78 -3 32 -42 c30 -40 33
-41 48 -24 20 22 21 38 1 21 -13 -11 -22 -6 -56 28 -35 34 -39 43 -30 60 23
44 0 122 -36 122 -11 0 -7 -7 11 -21 54 -42 18 -129 -54 -129 -71 0 -104 76
-55 125 13 14 20 25 15 25 -5 0 -18 -12 -29 -26z"/>
<path d="M13282 8710 c0 -8 4 -26 8 -40 6 -20 8 -21 8 -5 0 11 -3 29 -8 40 -5
12 -8 14 -8 5z"/>
<path d="M15880 8690 c0 -5 5 -10 11 -10 5 0 7 5 4 10 -3 6 -8 10 -11 10 -2 0
-4 -4 -4 -10z"/>
<path d="M15830 8664 c0 -21 -3 -25 -17 -19 -44 19 -83 -5 -83 -50 0 -41 67
-75 86 -44 4 8 9 7 15 -2 5 -9 9 16 9 64 0 42 -2 77 -5 77 -3 0 -5 -12 -5 -26z
m-8 -49 c10 -22 9 -29 -9 -46 -28 -28 -63 -11 -63 30 0 34 6 41 37 41 15 0 27
-9 35 -25z"/>
<path d="M15550 8610 c0 -40 4 -70 10 -70 6 0 10 30 10 70 0 40 -4 70 -10 70
-6 0 -10 -30 -10 -70z"/>
<path d="M520 8591 c0 -66 3 -81 15 -81 13 0 15 13 13 77 -2 50 -7 78 -15 81
-10 3 -13 -17 -13 -77z"/>
<path d="M12913 8620 c0 -30 2 -43 4 -27 2 15 2 39 0 55 -2 15 -4 2 -4 -28z"/>
<path d="M170 8585 l0 -75 45 0 c25 0 45 5 45 10 0 6 -13 10 -30 10 -23 0 -30
4 -30 20 0 15 7 20 25 20 14 0 25 5 25 10 0 6 -11 10 -25 10 -20 0 -25 5 -25
25 0 21 5 25 30 25 17 0 30 5 30 10 0 6 -20 10 -45 10 l-45 0 0 -75z"/>
<path d="M8920 8570 c0 -53 4 -90 10 -90 6 0 10 37 10 90 0 53 -4 90 -10 90
-6 0 -10 -37 -10 -90z"/>
<path d="M8990 8570 c0 -53 4 -90 10 -90 6 0 10 37 10 90 0 53 -4 90 -10 90
-6 0 -10 -37 -10 -90z"/>
<path d="M10172 8648 c-7 -7 -12 -25 -12 -40 0 -18 -5 -28 -15 -28 -8 0 -15
-7 -15 -15 0 -8 7 -15 15 -15 11 0 15 -12 15 -45 0 -33 4 -45 15 -45 11 0 15
12 15 45 0 33 4 45 15 45 8 0 15 7 15 15 0 8 -7 15 -15 15 -23 0 -19 41 5 47
11 3 20 12 20 19 0 17 -41 19 -58 2z"/>
<path d="M15640 8650 c-7 -4 -19 -6 -27 -3 -10 4 -13 -8 -13 -51 0 -68 18 -75
22 -9 2 37 7 49 22 51 26 5 38 -11 47 -60 7 -42 7 -42 6 11 -2 45 -6 55 -23
61 -11 5 -27 4 -34 0z"/>
<path d="M15953 8649 c-30 -11 -40 -53 -19 -84 17 -26 59 -34 72 -13 5 8 2 9
-10 5 -28 -11 -58 11 -54 40 7 63 73 54 73 -10 1 -20 4 -39 8 -43 4 -4 7 19 7
51 0 32 -3 56 -6 52 -3 -3 -16 -2 -28 2 -11 5 -31 5 -43 0z"/>
<path d="M8630 8565 c0 -50 4 -85 10 -85 6 0 10 16 10 35 0 34 1 35 40 35 22
0 40 5 40 10 0 6 -18 10 -40 10 -38 0 -40 2 -40 30 0 29 2 30 45 30 25 0 45 5
45 10 0 6 -25 10 -55 10 l-55 0 0 -85z"/>
<path d="M11212 8634 c-18 -13 -22 -25 -22 -73 0 -75 16 -91 91 -91 53 0 79
12 79 35 0 5 -5 2 -11 -7 -8 -14 -23 -18 -67 -18 -32 0 -63 5 -70 12 -7 7 -12
38 -12 70 0 46 4 59 19 68 30 16 107 12 125 -6 9 -8 16 -11 16 -5 0 31 -109
43 -148 15z"/>
<path d="M15883 8595 c0 -33 2 -45 4 -27 2 18 2 45 0 60 -2 15 -4 0 -4 -33z"/>
<path d="M11792 8633 c-40 -5 -56 -39 -47 -99 7 -49 17 -54 113 -54 92 0 102
8 102 80 0 32 -4 61 -8 64 -13 8 -124 14 -160 9z m74 -60 l26 -16 -24 -13
c-34 -19 -38 -17 -38 16 0 35 2 36 36 13z"/>
<path d="M270 8622 c0 -4 7 -18 16 -30 14 -21 14 -25 -1 -48 -20 -31 -12 -45
12 -21 16 15 18 15 35 0 25 -23 33 -10 13 21 -16 24 -16 27 5 56 17 24 18 30
6 30 -8 0 -20 -9 -27 -21 l-11 -21 -14 21 c-15 21 -34 28 -34 13z"/>
<path d="M380 8538 c0 -52 4 -88 10 -88 6 0 10 14 10 30 0 28 3 30 34 30 42 0
66 22 66 59 0 40 -27 60 -78 58 l-42 -1 0 -88z m84 56 c19 -18 19 -20 6 -45
-6 -10 -19 -19 -30 -19 -16 0 -40 26 -40 44 0 8 31 36 40 36 5 0 16 -7 24 -16z"/>
<path d="M587 8612 c-19 -21 -22 -54 -7 -83 15 -28 74 -26 94 3 21 30 20 54
-4 78 -25 25 -62 26 -83 2z m61 -14 c17 -17 15 -58 -4 -65 -36 -13 -68 33 -44
62 15 18 32 19 48 3z"/>
<path d="M710 8568 c0 -32 4 -58 10 -58 6 0 10 18 10 40 0 29 5 42 20 50 29
16 24 29 -10 28 -30 -1 -30 -1 -30 -60z"/>
<path d="M800 8610 c-24 -24 -26 -63 -4 -84 20 -20 68 -21 84 -1 17 21 7 29
-18 14 -21 -13 -52 -7 -52 11 0 5 21 10 46 10 42 0 45 1 39 23 -15 47 -61 61
-95 27z m54 -6 c26 -10 18 -24 -14 -24 -29 0 -38 9 -23 23 8 9 17 9 37 1z"/>
<path d="M13655 8618 c-2 -7 -13 -37 -24 -67 -20 -53 -20 -84 0 -48 13 22 79
24 79 2 0 -8 5 -15 10 -15 13 0 12 5 -13 74 -22 59 -43 81 -52 54z m33 -45
c10 -31 10 -33 -14 -33 -27 0 -29 6 -14 46 12 31 13 30 28 -13z"/>
<path d="M14418 8618 c-3 -7 -2 -38 1 -68 5 -49 9 -55 31 -58 22 -2 23 -1 8 8
-12 7 -18 24 -18 50 0 28 5 40 18 43 16 4 16 5 0 6 -10 0 -18 8 -18 16 0 18
-16 20 -22 3z"/>
<path d="M1000 8597 c0 -7 18 -31 40 -52 l40 -39 40 39 c37 36 51 65 32 65 -5
0 -19 -11 -32 -25 -13 -14 -31 -25 -40 -25 -9 0 -27 11 -40 25 -26 28 -40 32
-40 12z"/>
<path d="M8800 8603 c-43 -15 -54 -82 -18 -107 33 -23 64 -19 87 10 27 34 26
50 -4 79 -24 25 -36 28 -65 18z m54 -29 c19 -18 20 -28 6 -55 -20 -37 -80 -18
-80 26 0 42 44 59 74 29z"/>
<path d="M9065 8585 c-21 -20 -25 -32 -20 -53 12 -52 68 -69 105 -32 37 37 20
93 -32 105 -21 5 -33 1 -53 -20z m73 -7 c7 -7 12 -21 12 -33 0 -44 -60 -63
-80 -26 -14 27 -13 37 6 55 18 19 45 21 62 4z"/>
<path d="M9190 8602 c0 -20 41 -122 49 -122 5 0 18 21 29 48 l20 47 20 -47
c12 -27 25 -48 30 -48 10 0 55 121 47 128 -5 5 -35 -60 -35 -77 0 -5 -4 -12
-9 -15 -5 -3 -17 17 -27 44 -10 28 -21 50 -25 50 -4 0 -15 -22 -25 -49 -10
-28 -21 -48 -25 -45 -4 2 -13 21 -19 42 -13 39 -30 65 -30 44z"/>
<path d="M9480 8567 c0 -23 7 -53 16 -65 17 -24 53 -29 72 -10 9 9 12 9 12 0
0 -7 5 -12 10 -12 6 0 10 28 10 65 0 37 -4 65 -10 65 -5 0 -10 -19 -10 -43 0
-48 -13 -67 -46 -67 -26 0 -34 17 -34 71 0 21 -4 39 -10 39 -5 0 -10 -19 -10
-43z"/>
<path d="M9656 8597 c-26 -19 -16 -49 21 -61 40 -13 39 -30 -2 -33 -49 -2 -51
-3 -35 -13 38 -25 107 1 94 35 -4 8 -20 19 -38 23 -42 11 -50 44 -9 42 42 -3
50 -1 33 10 -21 13 -43 12 -64 -3z"/>
<path d="M13790 8602 c-8 -2 -21 -11 -27 -20 -43 -53 34 -124 82 -76 23 23 9
31 -16 9 -28 -26 -54 -9 -54 36 0 28 4 35 24 37 13 2 28 -1 34 -7 16 -16 31
-13 18 3 -14 17 -40 24 -61 18z"/>
<path d="M13913 8599 c-25 -9 -38 -47 -28 -78 12 -39 81 -39 93 0 3 9 -3 7
-17 -6 -30 -26 -56 -10 -56 36 0 28 4 35 23 37 13 2 30 -2 39 -10 14 -11 15
-11 12 1 -7 20 -40 30 -66 20z"/>
<path d="M14039 8596 c-19 -9 -24 -19 -24 -51 0 -34 4 -41 28 -49 48 -17 89
23 72 70 -12 33 -44 46 -76 30z m45 -12 c23 -9 21 -61 -3 -74 -39 -21 -73 19
-51 60 11 21 26 25 54 14z"/>
<path d="M14321 8601 c-8 -5 -20 -7 -28 -4 -10 4 -13 -8 -13 -51 0 -68 18 -75
22 -8 3 43 5 47 30 50 29 3 33 -3 41 -73 2 -17 5 -8 6 22 1 42 -3 54 -18 63
-23 12 -22 12 -40 1z"/>
<path d="M11247 8593 c-15 -14 -6 -23 12 -12 10 7 26 9 35 6 21 -8 21 -43 -1
-56 -17 -10 -17 -10 -1 -11 22 0 35 45 18 65 -13 15 -51 20 -63 8z"/>
<path d="M13292 8575 c0 -16 2 -22 5 -12 2 9 2 23 0 30 -3 6 -5 -1 -5 -18z"/>
<path d="M14151 8559 c-1 -55 10 -68 62 -66 l37 1 0 53 c0 29 -4 53 -10 53 -5
0 -10 -17 -10 -39 0 -42 -18 -65 -44 -55 -15 6 -21 19 -29 74 -3 14 -5 4 -6
-21z"/>
<path d="M11362 8560 c0 -14 2 -19 5 -12 2 6 2 18 0 25 -3 6 -5 1 -5 -13z"/>
<path d="M12931 8551 c-1 -19 40 -79 58 -86 10 -4 9 0 -3 14 -10 11 -16 27
-13 36 4 8 3 14 -1 14 -20 -3 -31 3 -35 19 -3 11 -5 12 -6 3z"/>
<path d="M15138 8552 l-108 -3 0 -44 0 -45 225 0 225 0 0 44 0 45 -117 3 c-65
2 -166 2 -225 0z"/>
<path d="M11240 8541 c0 -10 19 -25 25 -20 1 2 -3 10 -11 17 -8 7 -14 8 -14 3z"/>
<path d="M16732 8518 c-30 -30 0 -75 43 -64 19 5 25 13 25 35 0 38 -41 56 -68
29z m56 -26 c4 -28 -24 -40 -45 -19 -14 13 -14 19 -3 32 18 22 44 15 48 -13z"/>
<path d="M16870 8515 c-26 -32 13 -81 48 -59 34 22 22 74 -18 74 -10 0 -23 -7
-30 -15z m50 -10 c17 -20 5 -45 -20 -45 -23 0 -35 22 -26 45 7 19 30 19 46 0z"/>
<path d="M13225 8470 c-3 -5 -2 -10 4 -10 5 0 13 5 16 10 3 6 2 10 -4 10 -5 0
-13 -4 -16 -10z"/>
<path d="M13025 8440 c19 -8 73 -14 64 -6 -2 2 -22 6 -44 9 -28 5 -34 4 -20
-3z"/>
<path d="M13148 8433 c6 -2 18 -2 25 0 6 3 1 5 -13 5 -14 0 -19 -2 -12 -5z"/>
<path d="M4400 6273 c0 -149 5 -274 11 -296 12 -44 56 -97 106 -128 29 -18 55
-23 139 -27 148 -7 206 3 257 42 23 17 52 47 64 65 23 33 23 40 23 318 l0 284
-52 -3 -53 -3 -5 -265 c-5 -285 -7 -292 -61 -324 -39 -23 -210 -23 -249 0 -58
35 -60 47 -60 333 l0 261 -60 0 -60 0 0 -257z"/>
<path d="M10890 6345 c0 -22 4 -26 23 -23 14 2 22 10 22 23 0 13 -8 21 -22 23
-19 3 -23 -1 -23 -23z"/>
<path d="M11754 6362 c-16 -11 -34 -48 -34 -71 0 -12 -7 -21 -15 -21 -8 0 -15
-7 -15 -15 0 -8 7 -15 15 -15 12 0 15 -18 15 -105 0 -98 1 -105 20 -105 19 0
20 7 20 105 l0 105 25 0 c32 0 34 27 3 32 -17 2 -23 10 -23 28 0 16 8 28 23
35 12 5 22 15 22 22 0 14 -38 17 -56 5z"/>
<path d="M7280 6195 c0 -135 3 -165 14 -165 11 0 15 21 18 90 4 103 16 124 73
124 56 0 68 -20 73 -124 3 -68 8 -90 18 -90 11 0 14 21 14 96 0 92 -1 97 -29
125 -33 33 -84 39 -117 14 -30 -23 -34 -19 -34 40 0 42 -3 55 -15 55 -13 0
-15 -25 -15 -165z"/>
<path d="M9970 6195 c0 -158 1 -165 20 -165 19 0 20 7 20 165 0 158 -1 165
-20 165 -19 0 -20 -7 -20 -165z"/>
<path d="M10660 6195 c0 -158 1 -165 20 -165 17 0 20 7 20 53 l1 52 49 -52
c36 -40 56 -53 77 -53 27 0 26 2 -30 58 -31 32 -57 62 -57 67 0 5 23 33 52 62
50 51 51 53 26 53 -19 0 -39 -14 -72 -52 l-46 -53 0 98 c0 90 -1 97 -20 97
-19 0 -20 -7 -20 -165z"/>
<path d="M13080 6298 l0 -61 -21 19 c-15 13 -36 19 -71 19 -43 0 -53 -4 -79
-33 -24 -27 -29 -41 -29 -83 0 -58 21 -102 57 -118 38 -17 88 -13 117 10 l26
20 0 -20 c0 -14 6 -21 20 -21 19 0 20 7 20 165 0 158 -1 165 -20 165 -18 0
-20 -7 -20 -62z m-22 -80 c32 -31 31 -100 -3 -133 -66 -67 -166 11 -134 105
21 59 88 73 137 28z"/>
<path d="M13784 6336 c-38 -17 -65 -76 -35 -76 10 0 23 11 29 25 9 20 19 25
50 25 46 0 62 -14 62 -56 0 -39 -17 -54 -70 -61 -30 -4 -40 -10 -36 -20 4 -8
6 -23 6 -34 0 -10 7 -19 15 -19 8 0 15 9 15 19 0 14 12 23 42 33 51 16 73 52
63 104 -10 57 -81 87 -141 60z"/>
<path d="M6842 6238 c61 -219 57 -210 81 -206 19 3 27 20 57 121 19 64 37 117
40 117 3 0 21 -54 40 -120 31 -109 36 -120 57 -120 13 0 23 3 23 8 0 4 20 73
44 155 43 144 43 147 22 147 -20 0 -25 -12 -49 -113 -15 -61 -31 -118 -36
-125 -5 -9 -19 28 -40 101 -17 63 -31 120 -31 126 0 7 -11 11 -27 9 -25 -3
-28 -11 -63 -133 -42 -148 -35 -151 -80 38 -21 85 -26 97 -46 97 l-21 0 29
-102z"/>
<path d="M7880 6309 c0 -22 -5 -32 -20 -36 -11 -3 -20 -12 -20 -19 0 -8 9 -14
20 -14 19 0 20 -7 20 -89 0 -102 10 -121 66 -121 44 0 45 23 2 35 l-33 10 -3
83 -3 82 36 0 c46 0 49 27 3 32 -29 3 -33 7 -36 36 -4 43 -32 44 -32 1z"/>
<path d="M12450 6309 c0 -22 -5 -32 -20 -36 -11 -3 -20 -12 -20 -19 0 -8 9
-14 20 -14 19 0 20 -7 20 -89 0 -102 10 -121 66 -121 44 0 45 23 2 35 l-33 10
-3 83 -3 82 36 0 c46 0 49 27 3 32 -29 3 -33 7 -36 36 -4 43 -32 44 -32 1z"/>
<path d="M7608 6264 c-74 -39 -77 -169 -6 -218 32 -23 100 -20 132 5 l26 20 0
-20 c0 -14 6 -21 20 -21 19 0 20 7 20 120 0 113 -1 120 -20 120 -11 0 -20 -7
-20 -15 0 -12 -6 -11 -32 5 -39 23 -82 25 -120 4z m127 -45 c14 -14 20 -33 20
-65 0 -38 -5 -50 -28 -70 -60 -52 -137 -10 -137 74 0 78 90 115 145 61z"/>
<path d="M8204 6271 c-41 -18 -64 -60 -64 -118 0 -49 4 -59 34 -89 26 -26 42
-34 70 -34 37 0 86 18 86 32 0 4 5 8 10 8 6 0 10 -9 10 -20 0 -11 7 -20 15
-20 13 0 15 20 15 120 0 100 -2 120 -15 120 -8 0 -15 -7 -15 -15 0 -19 -9 -19
-31 1 -21 19 -86 27 -115 15z m91 -35 c44 -19 61 -71 40 -122 -38 -91 -155
-62 -155 39 0 45 12 67 45 85 26 15 29 15 70 -2z"/>
<path d="M8516 6259 c-21 -17 -26 -18 -26 -5 0 9 -7 16 -15 16 -12 0 -15 -20
-15 -120 0 -95 3 -120 14 -120 10 0 15 22 18 85 5 89 22 125 60 125 11 0 18 7
18 20 0 26 -20 25 -54 -1z"/>
<path d="M8668 6264 c-74 -39 -77 -169 -6 -218 13 -9 43 -16 71 -16 41 0 53 5
80 32 27 27 29 33 15 36 -10 2 -30 -6 -44 -17 -36 -28 -79 -27 -109 4 -47 47
-36 55 75 55 112 0 116 3 85 76 -23 57 -107 81 -167 48z m102 -29 c17 -9 30
-20 30 -24 0 -5 3 -16 6 -25 5 -14 -5 -16 -75 -16 -60 0 -81 3 -81 13 0 26 47
66 78 67 7 0 26 -7 42 -15z"/>
<path d="M9340 6273 c-32 -12 -70 -58 -76 -91 -10 -52 12 -110 49 -132 102
-63 225 31 188 143 -17 50 -52 79 -103 83 -24 2 -50 1 -58 -3z m103 -52 c10
-10 21 -37 24 -59 5 -36 2 -45 -25 -72 -60 -59 -142 -20 -142 68 0 76 90 115
143 63z"/>
<path d="M10128 6264 c-37 -20 -58 -63 -58 -120 0 -39 5 -51 34 -80 27 -27 42
-34 74 -34 58 0 89 15 112 52 40 66 17 158 -45 184 -43 18 -82 17 -117 -2z
m91 -25 c38 -13 51 -35 51 -87 0 -51 -25 -81 -72 -88 -52 -9 -88 27 -88 89 0
45 12 67 45 85 25 14 26 14 64 1z"/>
<path d="M10418 6264 c-37 -20 -58 -63 -58 -120 0 -39 5 -51 34 -80 27 -27 42
-34 74 -34 58 0 89 15 112 52 40 66 17 158 -45 184 -43 18 -82 17 -117 -2z
m91 -25 c38 -13 51 -35 51 -87 0 -51 -25 -81 -72 -88 -52 -9 -88 27 -88 89 0
45 12 67 45 85 25 14 26 14 64 1z"/>
<path d="M11068 6265 c-16 -9 -28 -11 -28 -5 0 5 -9 10 -20 10 -19 0 -20 -7
-20 -120 0 -113 1 -120 20 -120 18 0 20 7 20 85 0 78 2 88 25 110 30 30 54 31
89 4 25 -19 26 -25 26 -110 0 -84 1 -89 21 -89 20 0 21 4 17 100 -3 85 -6 103
-24 120 -27 28 -91 35 -126 15z"/>
<path d="M11344 6271 c-40 -17 -64 -60 -64 -113 0 -57 22 -101 57 -117 38 -17
88 -13 117 10 l26 20 0 -44 c0 -48 -17 -71 -61 -82 -28 -7 -89 17 -89 35 0 6
-9 10 -20 10 -23 0 -24 -4 -10 -31 32 -58 143 -64 192 -10 28 31 28 32 28 176
0 138 -1 145 -20 145 -12 0 -20 -7 -20 -17 0 -15 -2 -15 -19 1 -23 21 -87 30
-117 17z m114 -53 c32 -31 31 -100 -3 -133 -66 -67 -166 11 -134 105 21 59 88
73 137 28z"/>
<path d="M11908 6264 c-37 -20 -58 -63 -58 -120 0 -39 5 -51 34 -80 27 -27 42
-34 74 -34 58 0 89 15 112 52 40 66 17 158 -45 184 -43 18 -82 17 -117 -2z
m91 -25 c38 -13 51 -35 51 -87 0 -51 -25 -81 -72 -88 -52 -9 -88 27 -88 89 0
45 12 67 45 85 25 14 26 14 64 1z"/>
<path d="M12225 6268 c-11 -6 -23 -16 -27 -22 -5 -7 -8 -4 -8 7 0 10 -8 17
-20 17 -19 0 -20 -7 -20 -120 0 -113 1 -120 20 -120 18 0 20 7 20 85 0 72 3
88 20 105 11 11 29 20 40 20 13 0 20 7 20 20 0 22 -15 25 -45 8z"/>
<path d="M12648 6264 c-37 -20 -58 -63 -58 -120 0 -39 5 -51 34 -80 27 -27 42
-34 74 -34 58 0 89 15 112 52 40 66 17 158 -45 184 -43 18 -82 17 -117 -2z
m91 -25 c38 -13 51 -35 51 -87 0 -51 -25 -81 -72 -88 -52 -9 -88 27 -88 89 0
45 12 67 45 85 25 14 26 14 64 1z"/>
<path d="M13238 6264 c-74 -39 -77 -169 -6 -218 32 -23 100 -20 132 5 l26 20
0 -20 c0 -14 6 -21 20 -21 19 0 20 7 20 120 0 113 -1 120 -20 120 -11 0 -20
-7 -20 -15 0 -12 -6 -11 -32 5 -39 23 -82 25 -120 4z m127 -45 c14 -14 20 -33
20 -65 0 -38 -5 -50 -28 -70 -60 -52 -137 -10 -137 74 0 78 90 115 145 61z"/>
<path d="M9000 6265 c0 -3 20 -56 45 -118 l46 -114 -21 -52 c-24 -63 -24 -61
-2 -61 14 0 34 40 89 176 65 157 70 175 51 172 -15 -2 -28 -22 -49 -78 -16
-41 -33 -84 -38 -95 -6 -15 -16 1 -46 78 -29 73 -43 97 -57 97 -10 0 -18 -2
-18 -5z"/>
<path d="M9560 6190 c0 -86 15 -131 49 -150 29 -15 83 -12 109 6 20 14 22 14
22 0 0 -9 9 -16 20 -16 19 0 20 7 20 120 0 113 -1 120 -20 120 -18 0 -20 -7
-20 -85 0 -96 -16 -125 -69 -125 -50 0 -71 38 -71 131 0 72 -2 79 -20 79 -18
0 -20 -7 -20 -80z"/>
<path d="M10890 6150 c0 -113 1 -120 20 -120 19 0 20 7 20 120 0 113 -1 120
-20 120 -19 0 -20 -7 -20 -120z"/>
<path d="M13491 6218 c11 -29 33 -83 49 -119 l28 -65 -23 -55 c-20 -46 -21
-55 -8 -57 8 -2 19 0 23 5 7 8 140 329 140 338 0 3 -8 5 -19 5 -13 0 -24 -16
-40 -61 -13 -33 -29 -77 -38 -97 l-15 -37 -37 95 c-30 77 -41 96 -59 98 l-22
3 21 -53z"/>
<path d="M13780 6055 c0 -22 4 -26 23 -23 14 2 22 10 22 23 0 13 -8 21 -22 23
-19 3 -23 -1 -23 -23z"/>
<path d="M7543 4145 c0 -44 2 -61 4 -37 2 23 2 59 0 80 -2 20 -4 1 -4 -43z"/>
<path d="M7923 4145 c0 -44 2 -61 4 -37 2 23 2 59 0 80 -2 20 -4 1 -4 -43z"/>
<path d="M9341 4211 c-10 -7 -14 -27 -12 -72 2 -77 11 -93 11 -21 0 35 4 52
13 52 8 0 7 4 -3 10 -13 9 -12 12 4 25 21 16 10 21 -13 6z"/>
<path d="M9968 4149 c-2 -39 0 -73 5 -76 4 -2 7 30 7 71 0 42 -2 76 -4 76 -2
0 -6 -32 -8 -71z"/>
<path d="M6400 4195 c-17 -20 0 -40 46 -55 38 -13 47 -45 14 -55 -22 -7 -60
10 -60 27 0 6 -2 9 -5 6 -11 -11 8 -36 31 -42 34 -9 64 10 64 39 0 18 -8 26
-37 35 -50 16 -59 26 -43 45 7 8 10 15 7 15 -2 0 -10 -7 -17 -15z"/>
<path d="M6471 4193 c7 -12 15 -20 18 -17 3 2 -3 12 -13 22 -17 16 -18 16 -5
-5z"/>
<path d="M10230 4195 c-6 -64 5 -125 23 -125 8 0 8 3 -1 12 -16 16 -16 88 1
88 8 0 9 3 1 8 -6 4 -14 14 -17 22 -4 11 -6 10 -7 -5z"/>
<path d="M10709 4195 c-7 -35 6 -118 19 -121 7 -1 8 0 2 3 -15 7 -13 93 3 93
8 0 9 3 1 8 -6 4 -13 14 -16 22 -4 11 -6 10 -9 -5z"/>
<path d="M6539 4163 c-13 -15 -12 -15 8 -3 18 11 24 12 37 1 27 -23 18 -33
-24 -29 -32 3 -40 0 -40 -13 0 -25 35 -52 59 -44 12 3 21 11 21 16 0 5 -9 4
-19 -3 -15 -9 -23 -9 -35 1 -26 22 -19 31 24 31 44 0 52 16 22 43 -23 21 -36
21 -53 0z"/>
<path d="M6675 4171 c13 -5 22 -21 26 -47 l6 -39 2 41 c1 41 -10 55 -42 53 -7
0 -3 -4 8 -8z"/>
<path d="M6750 4125 c0 -32 2 -56 4 -54 8 7 10 98 3 105 -4 4 -7 -19 -7 -51z"/>
<path d="M6826 4164 c-29 -29 -10 -94 27 -94 6 0 1 7 -11 16 -12 8 -22 26 -22
39 0 13 10 31 22 39 12 9 17 16 11 16 -6 0 -19 -7 -27 -16z"/>
<path d="M6963 4168 c9 -8 18 -32 20 -58 l4 -45 1 51 c2 39 -2 53 -14 58 -25
10 -29 7 -11 -6z"/>
<path d="M7192 4140 c-2 -44 10 -70 32 -70 5 0 2 6 -7 13 -9 7 -18 31 -20 57
l-4 45 -1 -45z"/>
<path d="M7260 4142 c0 -21 -6 -44 -12 -51 -9 -9 -9 -12 -1 -7 6 3 14 0 16 -6
3 -7 6 13 6 45 1 31 -1 57 -4 57 -3 0 -5 -17 -5 -38z"/>
<path d="M7321 4171 c-7 -5 -12 -13 -10 -18 2 -5 12 -1 22 9 18 19 12 24 -12
9z"/>
<path d="M7436 4164 c-29 -29 -10 -94 27 -94 6 0 1 7 -11 16 -12 8 -22 26 -22
39 0 13 10 31 22 39 12 9 17 16 11 16 -6 0 -19 -7 -27 -16z"/>
<path d="M7731 4177 c2 -1 13 -9 24 -17 19 -14 19 -14 6 3 -7 9 -18 17 -24 17
-6 0 -8 -1 -6 -3z"/>
<path d="M7846 4170 c15 -6 21 -18 22 -45 2 -55 12 -57 12 -3 0 33 -5 48 -16
52 -24 9 -42 6 -18 -4z"/>
<path d="M8129 4163 c-13 -15 -12 -15 8 -3 18 11 24 12 37 1 27 -23 18 -33
-24 -29 -32 3 -40 0 -40 -13 0 -25 35 -52 59 -44 12 3 21 11 21 16 0 5 -9 4
-19 -3 -15 -9 -23 -9 -35 1 -26 22 -19 31 24 31 44 0 52 16 22 43 -23 21 -36
21 -53 0z"/>
<path d="M8265 4171 c13 -5 22 -21 26 -47 l6 -39 2 41 c1 41 -10 55 -42 53 -7
0 -3 -4 8 -8z"/>
<path d="M8340 4125 c0 -32 2 -56 4 -54 8 7 10 98 3 105 -4 4 -7 -19 -7 -51z"/>
<path d="M8416 4164 c-29 -29 -10 -94 27 -94 6 0 1 7 -11 16 -12 8 -22 26 -22
39 0 13 10 31 22 39 12 9 17 16 11 16 -6 0 -19 -7 -27 -16z"/>
<path d="M8553 4168 c9 -8 18 -32 20 -58 l4 -45 1 51 c2 39 -2 53 -14 58 -25
10 -29 7 -11 -6z"/>
<path d="M8782 4125 c1 -44 2 -49 5 -20 3 22 10 46 16 54 9 11 9 13 0 8 -6 -4
-14 -1 -16 5 -3 7 -5 -14 -5 -47z"/>
<path d="M8833 4169 c12 -7 18 -24 19 -57 l1 -47 4 43 c4 43 -9 72 -31 72 -6
0 -3 -5 7 -11z"/>
<path d="M8906 4164 c-29 -29 -10 -94 27 -94 6 0 1 7 -11 16 -12 8 -22 26 -22
39 0 13 10 31 22 39 12 9 17 16 11 16 -6 0 -19 -7 -27 -16z"/>
<path d="M8961 4180 c-6 -14 -5 -138 2 -131 4 4 6 37 4 72 -2 35 -4 62 -6 59z"/>
<path d="M9013 4125 c0 -33 2 -45 4 -27 2 18 2 45 0 60 -2 15 -4 0 -4 -33z"/>
<path d="M9053 4125 c0 -33 2 -45 4 -27 2 18 2 45 0 60 -2 15 -4 0 -4 -33z"/>
<path d="M9098 4170 c18 -8 22 -18 24 -57 l1 -48 4 43 c4 46 -9 72 -36 71 -11
0 -9 -3 7 -9z"/>
<path d="M9396 4164 c-30 -29 -10 -94 28 -94 19 0 46 34 46 57 0 21 -29 53
-48 53 -6 0 -18 -7 -26 -16z m52 -6 c30 -30 -2 -93 -36 -71 -21 13 -27 50 -12
69 15 17 32 18 48 2z"/>
<path d="M9511 4171 c-7 -5 -12 -13 -10 -18 2 -5 12 -1 22 9 18 19 12 24 -12
9z"/>
<path d="M9620 4156 c0 -31 6 -34 13 -6 3 11 1 23 -4 26 -5 3 -9 -6 -9 -20z"/>
<path d="M9668 4164 c12 -8 22 -26 22 -39 0 -13 -10 -31 -22 -39 -12 -9 -18
-16 -12 -16 18 0 44 35 44 58 0 22 -24 52 -43 52 -6 0 -1 -7 11 -16z"/>
<path d="M9743 4173 c-9 -3 -12 -23 -11 -56 l1 -52 4 45 c2 26 11 50 20 58 17
12 9 15 -14 5z"/>
<path d="M9806 4164 c-30 -29 -10 -94 28 -94 19 0 46 34 46 57 0 21 -29 53
-48 53 -6 0 -18 -7 -26 -16z m52 -6 c30 -30 -2 -93 -36 -71 -21 13 -27 50 -12
69 15 17 32 18 48 2z"/>
<path d="M9916 4164 c-9 -8 -16 -26 -16 -38 0 -22 27 -56 46 -56 4 0 -2 7 -14
16 -12 8 -22 26 -22 39 0 13 10 31 22 39 12 9 17 16 11 16 -6 0 -19 -7 -27
-16z"/>
<path d="M10022 4133 c-1 -29 0 -53 2 -53 2 0 13 -3 23 -6 17 -6 17 -6 1 7
-10 8 -19 32 -21 59 l-4 45 -1 -52z"/>
<path d="M10080 4133 c-3 -29 -1 -48 3 -44 5 5 7 28 5 52 l-3 44 -5 -52z"/>
<path d="M10176 4166 c10 -8 21 -12 24 -10 5 6 -21 24 -34 24 -6 0 -1 -6 10
-14z"/>
<path d="M10292 4168 c-19 -19 -14 -28 24 -44 27 -11 34 -19 29 -32 -5 -13 -4
-14 6 -5 16 16 -2 39 -36 47 -14 4 -25 11 -25 17 0 16 29 22 45 9 9 -7 15 -8
15 -2 0 9 -22 22 -39 22 -4 0 -12 -5 -19 -12z"/>
<path d="M10506 4164 c-29 -29 -10 -94 27 -94 6 0 1 7 -11 16 -12 8 -22 26
-22 39 0 13 10 31 22 39 12 9 17 16 11 16 -6 0 -19 -7 -27 -16z"/>
<path d="M10636 4170 c15 -6 21 -18 22 -45 2 -55 12 -57 12 -3 0 33 -5 48 -16
52 -24 9 -42 6 -18 -4z"/>
<path d="M10919 4163 c28 -19 27 -58 -1 -79 -19 -13 -19 -15 -4 -10 11 4 23 1
28 -6 4 -8 8 12 8 47 0 57 -1 60 -26 61 -25 2 -25 2 -5 -13z"/>
<path d="M10996 4164 c-30 -29 -10 -94 28 -94 19 0 46 34 46 57 0 21 -29 53
-48 53 -6 0 -18 -7 -26 -16z m52 -6 c30 -30 -2 -93 -36 -71 -21 13 -27 50 -12
69 15 17 32 18 48 2z"/>
<path d="M11111 4171 c-7 -5 -12 -13 -10 -18 2 -5 12 -1 22 9 18 19 12 24 -12
9z"/>
<path d="M11163 4125 c0 -33 2 -45 4 -27 2 18 2 45 0 60 -2 15 -4 0 -4 -33z"/>
<path d="M11219 4163 c-13 -15 -12 -15 8 -3 18 11 24 12 37 1 27 -23 18 -33
-24 -29 -32 3 -40 0 -40 -13 0 -25 35 -52 59 -44 12 3 21 11 21 16 0 5 -9 4
-19 -3 -15 -9 -23 -9 -35 1 -26 22 -19 31 24 31 44 0 52 16 22 43 -23 21 -36
21 -53 0z"/>
<path d="M6876 4157 c3 -10 9 -15 12 -12 3 3 0 11 -7 18 -10 9 -11 8 -5 -6z"/>
<path d="M6920 4150 c0 -11 2 -20 4 -20 2 0 6 9 9 20 3 11 1 20 -4 20 -5 0 -9
-9 -9 -20z"/>
<path d="M7087 4163 c-9 -9 -9 -71 1 -76 4 -3 7 15 7 39 0 24 0 44 -1 44 0 0
-4 -3 -7 -7z"/>
<path d="M7145 4125 c0 -24 3 -41 8 -38 4 2 7 19 7 38 0 19 -3 36 -7 38 -5 3
-8 -14 -8 -38z"/>
<path d="M7486 4155 c4 -8 8 -15 10 -15 2 0 4 7 4 15 0 8 -4 15 -10 15 -5 0
-7 -7 -4 -15z"/>
<path d="M7587 4163 c-9 -9 -9 -71 1 -76 4 -3 7 15 7 39 0 24 0 44 -1 44 0 0
-4 -3 -7 -7z"/>
<path d="M7645 4125 c0 -24 3 -41 8 -38 4 2 7 19 7 38 0 19 -3 36 -7 38 -5 3
-8 -14 -8 -38z"/>
<path d="M7700 4155 c0 -8 2 -15 4 -15 2 0 6 7 10 15 3 8 1 15 -4 15 -6 0 -10
-7 -10 -15z"/>
<path d="M8017 4163 c-14 -13 -6 -24 29 -39 25 -10 34 -20 30 -30 -3 -9 -1
-12 4 -9 21 13 9 34 -26 45 -24 8 -34 17 -30 26 6 15 3 18 -7 7z"/>
<path d="M8466 4157 c3 -10 9 -15 12 -12 3 3 0 11 -7 18 -10 9 -11 8 -5 -6z"/>
<path d="M8510 4150 c0 -11 2 -20 4 -20 2 0 6 9 9 20 3 11 1 20 -4 20 -5 0 -9
-9 -9 -20z"/>
<path d="M8677 4163 c-10 -10 -8 -71 2 -77 5 -4 7 3 4 14 -5 17 0 20 31 20 29
0 36 4 36 19 0 11 -4 22 -9 25 -5 4 -7 -3 -4 -14 5 -17 0 -20 -27 -20 -27 0
-32 3 -27 20 5 21 4 24 -6 13z"/>
<path d="M9167 4163 c-10 -10 -8 -71 2 -77 5 -4 7 3 4 14 -5 17 0 20 31 20 29
0 36 4 36 19 0 11 -4 22 -9 25 -5 4 -7 -3 -4 -14 5 -17 0 -20 -27 -20 -27 0
-32 3 -27 20 5 21 4 24 -6 13z"/>
<path d="M10137 4163 c-9 -9 -9 -71 1 -76 4 -3 7 15 7 39 0 24 0 44 -1 44 0 0
-4 -3 -7 -7z"/>
<path d="M10556 4157 c3 -10 9 -15 12 -12 3 3 0 11 -7 18 -10 9 -11 8 -5 -6z"/>
<path d="M10767 4163 c-10 -10 -8 -71 2 -77 5 -4 7 3 4 14 -5 17 0 20 31 20
29 0 36 4 36 19 0 11 -4 22 -9 25 -5 4 -7 -3 -4 -14 5 -17 0 -20 -27 -20 -27
0 -32 3 -27 20 5 21 4 24 -6 13z"/>
<path d="M10877 4163 c-9 -9 -9 -71 1 -76 4 -3 7 15 7 39 0 24 0 44 -1 44 0 0
-4 -3 -7 -7z"/>
<path d="M11317 4163 c-14 -13 -6 -24 29 -39 25 -10 34 -20 30 -30 -3 -9 -1
-12 4 -9 21 13 9 34 -26 45 -24 8 -34 17 -30 26 6 15 3 18 -7 7z"/>
<path d="M7771 4124 c0 -11 3 -14 6 -6 3 7 2 16 -1 19 -3 4 -6 -2 -5 -13z"/>
<path d="M6640 4115 c-10 -12 -10 -18 0 -30 7 -8 18 -15 24 -15 6 0 3 5 -6 11
-24 14 -22 28 5 39 15 6 17 9 6 9 -9 1 -22 -6 -29 -14z"/>
<path d="M7810 4120 c-17 -11 -4 -41 21 -47 8 -3 7 0 -3 7 -24 15 -22 29 5 40
12 5 15 9 7 9 -8 0 -22 -4 -30 -9z"/>
<path d="M8230 4115 c-10 -12 -10 -18 0 -30 7 -8 18 -15 24 -15 6 0 3 5 -6 11
-24 14 -22 28 5 39 15 6 17 9 6 9 -9 1 -22 -6 -29 -14z"/>
<path d="M10600 4120 c-17 -11 -4 -41 21 -47 8 -3 7 0 -3 7 -24 15 -22 29 5
40 12 5 15 9 7 9 -8 0 -22 -4 -30 -9z"/>
<path d="M9620 4075 c0 -27 2 -46 5 -43 8 8 9 77 2 85 -4 3 -7 -15 -7 -42z"/>
<path d="M6876 4093 c-6 -14 -5 -15 5 -6 7 7 10 15 7 18 -3 3 -9 -2 -12 -12z"/>
<path d="M7491 4105 c-7 -29 -6 -64 2 -56 5 5 7 21 4 37 -2 16 -5 25 -6 19z"/>
<path d="M7700 4095 c0 -8 4 -15 10 -15 5 0 7 7 4 15 -4 8 -8 15 -10 15 -2 0
-4 -7 -4 -15z"/>
<path d="M8466 4093 c-6 -14 -5 -15 5 -6 7 7 10 15 7 18 -3 3 -9 -2 -12 -12z"/>
<path d="M8736 4093 c-6 -14 -5 -15 5 -6 7 7 10 15 7 18 -3 3 -9 -2 -12 -12z"/>
<path d="M9226 4093 c-6 -14 -5 -15 5 -6 7 7 10 15 7 18 -3 3 -9 -2 -12 -12z"/>
<path d="M10280 4101 c0 -6 4 -13 10 -16 6 -3 7 1 4 9 -7 18 -14 21 -14 7z"/>
<path d="M10556 4093 c-6 -14 -5 -15 5 -6 7 7 10 15 7 18 -3 3 -9 -2 -12 -12z"/>
<path d="M10826 4093 c-6 -14 -5 -15 5 -6 7 7 10 15 7 18 -3 3 -9 -2 -12 -12z"/>
<path d="M7746 4085 c-11 -8 -15 -15 -9 -15 6 0 16 7 23 15 16 19 11 19 -14 0z"/>
<path d="M10176 4084 c-11 -8 -16 -14 -10 -14 13 0 39 18 34 24 -3 2 -14 -2
-24 -10z"/>
<path d="M10870 4050 c0 -9 39 -25 45 -18 2 2 -7 8 -21 15 -13 6 -24 7 -24 3z"/>
<path d="M7708 3853 c816 -2 2148 -2 2960 0 812 1 145 2 -1483 2 -1628 0
-2293 -1 -1477 -2z"/>
<path d="M7702 3473 l3 -78 55 -1 c30 -1 132 2 225 6 l170 7 -137 1 c-115 2
-138 4 -138 17 0 13 22 15 136 15 87 0 133 4 129 10 -4 6 -60 10 -136 10 -107
0 -129 3 -129 15 0 12 25 15 138 18 l137 3 -137 2 c-115 2 -138 5 -138 17 0
13 22 15 135 15 83 0 135 4 135 10 0 6 -82 10 -225 10 l-226 0 3 -77z m102 9
c2 -4 -4 -8 -14 -8 -10 0 -16 4 -14 8 3 4 9 8 14 8 5 0 11 -4 14 -8z"/>
<path d="M8820 3545 c0 -6 103 -75 112 -75 5 0 8 18 8 40 l0 40 -60 0 c-33 0
-60 -2 -60 -5z"/>
<path d="M8958 3493 l-3 -58 -102 -3 c-102 -3 -103 -3 -103 -27 0 -24 1 -24
103 -27 l102 -3 3 -57 c3 -50 6 -58 22 -58 18 0 20 7 20 60 l0 60 100 0 100 0
0 25 c0 25 0 25 -100 25 l-99 0 -3 57 c-2 45 -7 59 -20 61 -14 3 -17 -6 -20
-55z"/>
<path d="M9017 3543 c-9 -8 -9 -73 -1 -73 8 0 124 72 124 76 0 7 -117 4 -123
-3z"/>
<path d="M9097 3503 c-37 -25 -66 -48 -63 -51 3 -3 41 18 83 46 43 29 71 52
63 51 -8 0 -46 -21 -83 -46z"/>
<path d="M9804 3537 c-2 -7 -3 -71 -2 -143 l3 -129 220 0 220 0 0 140 0 140
-218 3 c-173 2 -219 0 -223 -11z m99 -68 c-6 -20 -43 -22 -43 -2 0 7 -5 13
-12 13 -6 0 -3 6 7 14 24 17 54 1 48 -25z"/>
<path d="M11900 3405 l0 -145 225 0 225 0 0 145 0 145 -225 0 -225 0 0 -145z
m261 40 c13 4 28 0 40 -11 20 -18 20 -18 -3 -30 -22 -12 -53 -3 -70 21 -4 6
-8 2 -8 -9 0 -16 -2 -17 -17 -5 -11 9 -14 10 -9 2 4 -7 16 -18 28 -24 15 -8
19 -8 14 0 -15 23 24 10 39 -13 13 -20 14 -29 5 -46 l-11 -21 -18 20 c-16 19
-20 19 -31 6 -12 -14 -60 -22 -60 -9 0 3 5 14 10 24 8 15 6 24 -10 40 -29 29
-26 54 5 48 17 -4 25 -1 25 8 0 8 10 24 23 37 l22 22 3 -33 c3 -28 6 -32 23
-27z"/>
<path d="M8750 3536 c0 -3 23 -19 103 -70 15 -10 27 -14 27 -10 0 5 -26 26
-58 47 -54 34 -72 43 -72 33z"/>
<path d="M8752 3483 c3 -24 8 -28 41 -31 47 -4 47 10 1 37 -45 27 -46 27 -42
-6z"/>
<path d="M9146 3482 l-40 -27 33 -3 c46 -5 61 3 61 33 0 31 -5 31 -54 -3z"/>
<path d="M11021 3466 c-74 -78 36 -199 114 -126 34 32 35 97 2 128 -32 31 -87
29 -116 -2z"/>
<path d="M6035 3455 c-30 -29 -32 -68 -5 -95 41 -41 110 -13 110 43 0 38 -7
50 -37 66 -31 16 -41 14 -68 -14z m85 -16 c26 -48 -23 -104 -69 -80 -24 13
-30 68 -9 89 20 20 66 15 78 -9z"/>
<path d="M6330 3459 c0 -18 -4 -20 -25 -15 -39 10 -65 -9 -65 -48 0 -42 17
-57 64 -54 l36 3 0 68 c0 37 -2 67 -5 67 -3 0 -5 -9 -5 -21z m-10 -48 c20 -38
-13 -71 -51 -51 -20 11 -23 27 -13 54 9 22 51 20 64 -3z"/>
<path d="M6620 3405 c0 -37 4 -65 10 -65 6 0 10 13 10 29 0 23 5 31 23 34 l22
4 -22 2 c-17 1 -23 7 -23 25 0 19 6 26 28 29 22 3 20 4 -10 6 l-38 1 0 -65z"/>
<path d="M6193 3442 c-20 -3 -23 -9 -23 -53 0 -27 5 -49 10 -49 6 0 10 18 10
40 0 27 5 42 17 49 22 12 15 18 -14 13z"/>
<path d="M6387 3432 c-42 -46 0 -108 57 -86 9 3 16 11 16 16 0 6 -6 6 -15 -2
-17 -14 -55 -4 -55 16 0 10 12 14 40 14 44 0 52 16 22 43 -24 22 -45 21 -65
-1z m63 -17 c0 -10 -11 -15 -35 -15 -26 0 -33 3 -29 15 4 9 19 15 35 15 19 0
29 -5 29 -15z"/>
<path d="M6518 3442 c-15 -3 -18 -13 -16 -55 1 -47 2 -48 5 -12 2 22 11 46 20
52 19 15 15 21 -9 15z"/>
<path d="M6743 3442 c-20 -3 -23 -9 -23 -53 0 -27 5 -49 10 -49 6 0 10 18 10
40 0 27 5 42 17 49 22 12 15 18 -14 13z"/>
<path d="M6808 3439 c-21 -12 -24 -69 -6 -87 17 -17 54 -15 72 4 23 22 20 60
-6 78 -26 18 -36 19 -60 5z m60 -25 c22 -40 -24 -82 -55 -51 -24 23 -9 67 22
67 13 0 28 -7 33 -16z"/>
<path d="M6938 3443 c-15 -4 -18 -15 -16 -56 l1 -52 6 45 c5 40 9 45 34 48 26
3 27 2 27 -42 0 -58 18 -61 22 -3 3 37 6 42 28 42 22 0 25 -5 28 -42 2 -24 8
-43 14 -43 15 0 3 90 -13 101 -8 5 -23 7 -34 3 -24 -7 -34 -7 -60 -1 -11 3
-28 3 -37 0z"/>
<path d="M7700 3360 c0 -6 82 -10 225 -10 143 0 225 4 225 10 0 6 -82 10 -225
10 -143 0 -225 -4 -225 -10z"/>
<path d="M8773 3352 c-17 -2 -23 -10 -23 -28 0 -29 4 -30 46 -3 50 31 43 40
-23 31z"/>
<path d="M9070 3354 c0 -11 120 -87 126 -81 4 4 -13 16 -98 71 -16 10 -28 14
-28 10z"/>
<path d="M9120 3349 c0 -8 63 -49 74 -49 3 0 6 11 6 24 0 21 -6 24 -40 28 -22
2 -40 0 -40 -3z"/>
<path d="M8832 3309 c-35 -22 -62 -43 -59 -45 4 -5 137 75 137 82 0 10 -20 1
-78 -37z"/>
<path d="M8865 3299 l-60 -39 68 0 67 0 0 40 c0 22 -3 40 -7 39 -5 0 -35 -18
-68 -40z"/>
<path d="M9017 3333 c-12 -12 -7 -64 7 -69 7 -3 38 -4 67 -2 l54 3 -36 21
c-20 12 -47 29 -61 38 -13 9 -28 13 -31 9z"/>
<path d="M7813 3313 c65 -2 168 -2 230 0 62 1 9 3 -118 3 -126 0 -177 -2 -112
-3z"/>
<path d="M7700 3270 c0 -6 82 -10 225 -10 143 0 225 4 225 10 0 6 -82 10 -225
10 -143 0 -225 -4 -225 -10z"/>
<path d="M9710 1790 c-10 -6 -14 -26 -12 -71 3 -74 12 -93 12 -26 0 28 5 47
11 47 8 0 8 4 0 13 -8 10 -7 17 1 25 15 15 7 24 -12 12z"/>
<path d="M9767 1778 c-15 -25 -12 -128 4 -128 5 0 9 20 9 45 0 29 4 45 13 45
9 0 8 3 -2 9 -8 5 -11 16 -6 30 8 28 -1 27 -18 -1z"/>
<path d="M9820 1790 c0 -5 5 -10 11 -10 5 0 7 5 4 10 -3 6 -8 10 -11 10 -2 0
-4 -4 -4 -10z"/>
<path d="M13475 1790 c-3 -5 -1 -10 4 -10 6 0 11 5 11 10 0 6 -2 10 -4 10 -3
0 -8 -4 -11 -10z"/>
<path d="M1040 1775 c-7 -8 -10 -21 -7 -29 3 -8 -1 -20 -9 -27 -19 -15 -14
-49 8 -63 13 -8 26 -7 48 1 17 6 32 7 36 2 3 -5 10 -9 16 -9 6 0 3 9 -6 19
-11 12 -14 21 -7 26 6 3 11 11 11 17 0 6 -6 6 -15 -2 -13 -11 -21 -8 -45 15
-33 32 -30 50 8 40 22 -5 24 -4 13 9 -17 20 -35 20 -51 1z m36 -76 c16 -17 16
-22 4 -29 -21 -14 -36 -12 -50 5 -10 12 -10 18 0 30 16 20 23 19 46 -6z"/>
<path d="M3388 1779 c-30 -17 -22 -48 17 -65 37 -15 46 -40 19 -51 -8 -3 -20
-1 -27 6 -17 17 -31 13 -17 -4 26 -32 90 -6 76 30 -3 9 -22 23 -41 31 -19 8
-35 19 -35 24 0 17 31 24 51 11 15 -9 19 -8 19 3 0 24 -34 32 -62 15z"/>
<path d="M4060 1775 c-6 -8 -9 -19 -5 -24 3 -6 -1 -22 -10 -35 -13 -19 -14
-29 -5 -45 12 -23 58 -29 77 -10 8 8 13 8 17 0 4 -6 12 -11 18 -11 7 0 6 5 -2
15 -7 8 -9 23 -4 37 6 21 5 21 -10 9 -15 -13 -20 -11 -43 11 -17 18 -24 32
-19 44 5 13 9 15 18 6 17 -17 33 -15 18 3 -16 19 -34 19 -50 0z m34 -74 c21
-23 14 -41 -15 -41 -22 0 -34 22 -25 45 7 20 19 19 40 -4z"/>
<path d="M7392 1781 c-8 -4 -12 -17 -10 -28 1 -11 -3 -27 -10 -36 -31 -38 8
-79 57 -60 22 8 33 8 42 -1 11 -9 11 -8 0 6 -9 13 -10 22 -1 37 7 14 7 21 0
21 -5 0 -10 -4 -10 -10 0 -20 -29 -9 -49 19 -27 38 -26 44 4 38 16 -3 24 0 22
7 -5 14 -28 18 -45 7z m34 -82 c16 -17 16 -22 4 -29 -21 -14 -36 -12 -50 5
-10 12 -10 18 0 30 16 20 23 19 46 -6z"/>
<path d="M9572 1780 c-26 -11 -44 -51 -35 -77 20 -58 77 -71 112 -27 26 33 26
55 4 82 -22 25 -51 33 -81 22z m66 -22 c19 -19 14 -63 -9 -84 -19 -17 -23 -17
-47 -3 -30 16 -41 61 -21 85 14 17 60 19 77 2z"/>
<path d="M16172 1725 l-2 -70 34 -2 c60 -5 89 53 46 92 -16 15 -25 16 -44 7
-23 -10 -25 -9 -29 16 -2 15 -5 -4 -5 -43z m78 -4 c20 -38 -13 -71 -51 -51
-20 11 -23 27 -13 54 9 22 51 20 64 -3z"/>
<path d="M16480 1775 c-7 -8 -10 -21 -7 -29 3 -8 -1 -20 -9 -27 -19 -15 -14
-49 8 -63 13 -8 26 -7 48 1 17 6 32 7 36 2 3 -5 10 -9 16 -9 6 0 3 9 -6 19
-11 12 -14 21 -7 26 6 3 11 11 11 17 0 6 -6 6 -15 -2 -13 -11 -21 -8 -45 15
-33 32 -30 50 8 40 22 -5 24 -4 13 9 -17 20 -35 20 -51 1z m36 -76 c16 -17 16
-22 4 -29 -21 -14 -36 -12 -50 5 -10 12 -10 18 0 30 16 20 23 19 46 -6z"/>
<path d="M290 1715 l0 -65 34 0 c43 0 65 23 47 52 -9 14 -9 23 -1 33 20 24 1
45 -41 45 l-39 0 0 -65z m68 33 c3 -14 -3 -18 -27 -18 -25 0 -31 4 -31 21 0
16 5 20 27 17 17 -2 29 -10 31 -20z m0 -60 c-2 -17 -11 -24 -30 -26 -24 -3
-28 0 -28 22 0 22 4 26 31 26 26 0 30 -3 27 -22z"/>
<path d="M787 1767 c-2 -7 -1 -34 2 -62 5 -40 10 -50 26 -53 18 -2 18 -2 3 8
-21 13 -25 77 -5 82 9 2 8 7 -4 20 -12 11 -19 13 -22 5z"/>
<path d="M3817 1767 c-2 -7 -1 -34 2 -62 5 -40 10 -50 26 -53 18 -2 18 -2 3 8
-21 13 -25 77 -5 82 9 2 8 7 -4 20 -12 11 -19 13 -22 5z"/>
<path d="M6462 1718 l-2 -68 33 1 c29 2 30 2 5 6 -26 4 -27 8 -31 66 l-3 62
-2 -67z"/>
<path d="M12642 1718 c-12 -33 -20 -63 -17 -66 2 -3 7 3 11 12 4 10 18 16 39
16 21 0 35 -6 39 -16 4 -9 9 -15 11 -12 9 8 -38 128 -50 128 -6 0 -21 -28 -33
-62z m52 -5 c6 -20 4 -23 -18 -23 -30 0 -29 -2 -15 40 12 34 19 30 33 -17z"/>
<path d="M12881 1759 c-6 -11 -7 -19 -2 -19 6 0 11 -19 13 -42 2 -34 7 -43 23
-46 18 -2 18 -2 3 8 -21 13 -25 77 -5 82 9 2 8 7 -4 19 -15 15 -17 15 -28 -2z"/>
<path d="M13401 1759 c-6 -11 -7 -19 -2 -19 6 0 11 -19 13 -42 2 -34 7 -43 23
-46 18 -2 18 -2 3 8 -21 13 -25 77 -5 82 9 2 8 7 -4 19 -15 15 -17 15 -28 -2z"/>
<path d="M15910 1716 l0 -66 33 0 c49 0 56 9 54 70 l-2 55 -42 3 -43 3 0 -65z
m75 34 c0 -9 -11 -16 -27 -18 -23 -3 -28 1 -28 18 0 17 5 21 28 18 16 -2 27
-9 27 -18z m2 -56 c7 -18 -12 -34 -39 -34 -13 0 -18 8 -18 25 0 20 5 25 25 25
14 0 28 -7 32 -16z"/>
<path d="M417 1742 c-21 -23 -22 -56 -1 -76 20 -20 58 -21 74 -1 14 17 0 21
-17 4 -14 -14 -53 -2 -53 17 0 10 12 14 40 14 44 0 52 16 24 44 -21 21 -47 20
-67 -2z m67 -17 c4 -12 -3 -15 -29 -15 -33 0 -43 8 -28 23 12 13 51 7 57 -8z"/>
<path d="M537 1742 c-10 -10 -17 -27 -17 -38 0 -35 17 -49 65 -50 l45 -2 0 50
c0 40 -3 49 -15 45 -8 -4 -17 -2 -20 3 -10 16 -41 11 -58 -8z m68 -36 c0 -36
-26 -56 -49 -37 -16 14 -22 52 -9 65 4 4 19 6 33 4 20 -2 25 -8 25 -32z"/>
<path d="M3520 1751 c-8 -6 -18 -7 -22 -5 -4 3 -7 -30 -6 -73 0 -43 3 -64 5
-46 4 30 6 32 34 26 37 -7 59 11 59 48 0 45 -36 71 -70 50z m50 -26 c14 -17 5
-51 -15 -59 -33 -12 -61 19 -50 55 8 23 47 25 65 4z"/>
<path d="M3632 1744 c-26 -18 -29 -56 -6 -78 39 -40 105 4 85 56 -8 22 -29 38
-50 38 -3 0 -17 -7 -29 -16z m66 -36 c2 -18 -3 -30 -17 -37 -29 -16 -51 -3
-51 28 0 35 8 43 40 39 19 -2 26 -10 28 -30z"/>
<path d="M3763 1752 c-20 -3 -23 -9 -23 -53 0 -27 5 -49 10 -49 6 0 10 18 10
40 0 27 5 42 17 49 22 12 15 18 -14 13z"/>
<path d="M3895 1746 c-16 -12 -17 -16 -6 -30 7 -9 19 -16 26 -16 7 0 18 -7 25
-15 10 -12 9 -16 -5 -21 -9 -4 -21 -2 -28 5 -17 17 -31 13 -17 -5 8 -8 25 -14
39 -12 36 4 35 39 -1 56 -38 18 -36 36 3 28 27 -5 30 -4 19 9 -16 19 -31 19
-55 1z"/>
<path d="M6677 1742 c-9 -10 -17 -28 -17 -40 0 -41 51 -67 78 -40 9 9 12 7 12
-9 0 -32 -26 -48 -55 -35 -15 7 -25 8 -25 2 0 -15 51 -24 69 -13 21 13 29 139
9 141 -7 0 -22 3 -33 7 -14 4 -27 0 -38 -13z m67 -18 c10 -27 7 -43 -13 -54
-38 -20 -71 13 -51 51 13 23 55 25 64 3z"/>
<path d="M6807 1742 c-37 -41 -8 -99 45 -88 32 6 39 -13 12 -35 -13 -10 -19
-10 -36 0 -11 7 -23 10 -26 6 -9 -9 19 -25 43 -25 39 0 49 16 53 84 4 58 2 65
-14 65 -11 -1 -28 2 -39 6 -14 4 -27 0 -38 -13z m68 -36 c0 -36 -26 -56 -49
-37 -16 14 -22 52 -9 65 4 4 19 6 33 4 20 -2 25 -8 25 -32z"/>
<path d="M6941 1741 c-25 -25 -26 -39 -5 -69 11 -17 24 -21 55 -20 l39 1 0 49
c0 32 -4 48 -12 48 -7 0 -23 3 -35 6 -14 4 -28 -1 -42 -15z m64 -35 c0 -36
-26 -56 -49 -37 -16 14 -22 52 -9 65 4 4 19 6 33 4 20 -2 25 -8 25 -32z"/>
<path d="M7071 1741 c-25 -25 -26 -39 -5 -70 13 -18 23 -22 45 -17 24 5 29 2
29 -15 0 -25 -27 -36 -51 -21 -26 16 -34 15 -19 -3 18 -22 67 -19 80 4 15 29
13 131 -2 131 -7 0 -23 3 -35 6 -14 4 -28 -1 -42 -15z m64 -35 c0 -36 -26 -56
-49 -37 -16 14 -22 52 -9 65 4 4 19 6 33 4 20 -2 25 -8 25 -32z"/>
<path d="M7208 1749 c-21 -12 -24 -69 -6 -87 17 -17 53 -15 68 3 15 18 7 19
-19 3 -15 -9 -23 -9 -35 1 -27 22 -18 31 29 31 49 0 55 10 25 40 -22 22 -37
24 -62 9z m62 -29 c0 -6 -16 -10 -35 -10 -38 0 -46 13 -18 29 19 10 53 -2 53
-19z"/>
<path d="M9880 1740 c-24 -24 -25 -38 -4 -68 17 -25 56 -29 74 -7 15 18 7 19
-19 3 -25 -15 -51 4 -51 38 0 33 31 47 58 28 12 -8 22 -11 22 -5 0 11 -32 31
-49 31 -6 0 -20 -9 -31 -20z"/>
<path d="M10000 1740 c-24 -24 -25 -38 -4 -68 17 -25 56 -29 74 -7 15 18 7 19
-19 3 -15 -9 -23 -9 -35 1 -26 22 -19 31 24 31 33 0 40 3 40 20 0 18 -26 40
-49 40 -6 0 -20 -9 -31 -20z m70 -20 c0 -6 -16 -10 -35 -10 -38 0 -46 13 -18
29 19 10 53 -2 53 -19z"/>
<path d="M12968 1749 c-21 -12 -24 -69 -6 -87 17 -17 54 -15 72 4 23 22 20 60
-6 78 -26 18 -36 19 -60 5z m60 -25 c22 -40 -24 -82 -55 -51 -24 23 -9 67 22
67 13 0 28 -7 33 -16z"/>
<path d="M13098 1753 c-15 -4 -18 -15 -16 -56 l1 -52 6 45 c5 40 9 45 34 48
26 3 27 2 27 -42 0 -58 18 -61 22 -3 3 37 6 42 28 42 22 0 25 -5 28 -42 2 -24
8 -43 14 -43 15 0 3 90 -13 101 -8 5 -23 7 -34 3 -24 -7 -34 -7 -60 -1 -11 3
-28 3 -37 0z"/>
<path d="M13292 1744 c-26 -18 -29 -56 -6 -78 39 -40 105 4 85 56 -8 22 -29
38 -50 38 -3 0 -17 -7 -29 -16z m66 -36 c2 -18 -3 -30 -17 -37 -29 -16 -51 -3
-51 28 0 35 8 43 40 39 19 -2 26 -10 28 -30z"/>
<path d="M13648 1749 c-21 -12 -24 -69 -6 -87 17 -17 53 -15 68 3 15 18 7 19
-19 3 -15 -9 -23 -9 -35 1 -27 22 -18 31 29 31 49 0 55 10 25 40 -22 22 -37
24 -62 9z m62 -29 c0 -6 -16 -10 -35 -10 -38 0 -46 13 -18 29 19 10 53 -2 53
-19z"/>
<path d="M16048 1749 c-22 -12 -24 -71 -4 -88 7 -6 30 -10 50 -9 36 3 36 3 36
51 0 31 -4 47 -12 47 -7 0 -22 2 -33 5 -11 3 -28 0 -37 -6z m62 -28 c20 -38
-13 -71 -51 -51 -20 11 -23 27 -13 54 9 22 51 20 64 -3z"/>
<path d="M661 1714 c-1 -49 13 -64 57 -61 32 2 32 3 31 52 -2 49 -2 50 -8 11
-7 -44 -33 -68 -52 -49 -7 7 -15 29 -19 50 l-8 38 -1 -41z"/>
<path d="M850 1745 c0 -2 7 -23 16 -45 10 -25 14 -52 10 -72 -9 -45 6 -25 37
50 30 71 30 72 19 72 -5 0 -15 -19 -22 -42 l-13 -43 -18 43 c-16 36 -29 53
-29 37z"/>
<path d="M6541 1714 c-1 -49 13 -64 57 -61 32 2 32 3 31 52 -2 49 -2 50 -8 11
-7 -44 -33 -68 -52 -49 -7 7 -15 29 -19 50 l-8 38 -1 -41z"/>
<path d="M9820 1700 c0 -27 5 -50 10 -50 6 0 10 23 10 50 0 28 -4 50 -10 50
-5 0 -10 -22 -10 -50z"/>
<path d="M12762 1708 c-2 -51 4 -55 66 -56 20 -1 22 4 22 49 0 27 -4 49 -10
49 -5 0 -10 -18 -10 -39 0 -70 -55 -63 -63 7 -3 33 -4 32 -5 -10z"/>
<path d="M13483 1700 c0 -30 2 -43 4 -27 2 15 2 39 0 55 -2 15 -4 2 -4 -28z"/>
<path d="M13532 1700 c12 -28 25 -49 31 -47 12 4 48 97 37 97 -5 0 -15 -19
-23 -42 l-15 -43 -18 43 c-9 23 -21 42 -25 42 -4 0 2 -23 13 -50z"/>
<path d="M16290 1745 c0 -2 7 -23 16 -45 10 -25 14 -52 10 -72 -9 -45 6 -25
37 50 30 71 30 72 19 72 -5 0 -15 -19 -22 -42 l-13 -43 -18 43 c-16 36 -29 53
-29 37z"/>
<path d="M2610 1733 c-24 -10 -30 -25 -30 -86 0 -67 -12 -97 -40 -97 -17 0
-20 -7 -20 -50 0 -32 7 -61 20 -82 11 -18 20 -36 20 -39 0 -4 -22 -21 -49 -38
-54 -35 -77 -67 -39 -55 12 3 43 22 71 42 44 32 48 38 43 66 -4 24 -3 27 5 14
7 -12 22 -18 50 -18 31 0 42 -5 50 -22 9 -21 96 -88 112 -88 22 0 0 30 -43 59
-47 32 -62 51 -40 51 6 0 10 7 10 16 0 8 6 21 13 28 7 8 11 32 9 64 -3 41 -8
52 -21 52 -31 0 -41 22 -41 90 0 36 -4 70 -8 77 -9 14 -52 24 -72 16z"/>
<path d="M8194 1705 c-4 -8 0 -22 7 -31 12 -14 14 -14 21 5 6 18 16 21 63 21
l55 0 0 -100 0 -100 -39 0 c-22 0 -43 -5 -46 -10 -4 -7 15 -9 52 -8 46 2 57 6
54 18 -7 27 -6 124 2 166 8 38 6 42 -15 48 -13 3 -51 6 -86 6 -47 0 -64 -4
-68 -15z"/>
<path d="M11218 1714 c-4 -3 2 -29 12 -59 20 -57 35 -131 45 -212 5 -49 4 -53
-15 -53 -18 0 -19 -3 -9 -22 7 -12 11 -57 10 -105 -1 -45 3 -91 9 -102 13 -24
74 -43 152 -47 60 -3 89 -13 126 -47 21 -20 21 -22 5 -28 -14 -4 -17 -15 -14
-47 1 -23 -1 -51 -4 -63 -6 -19 -12 -20 -51 -14 -55 8 -114 -3 -114 -21 0 -13
-54 -43 -103 -58 -9 -3 -20 -14 -24 -23 -3 -10 -15 -26 -27 -35 -17 -14 -19
-21 -10 -35 6 -10 20 -18 30 -18 15 0 20 9 22 38 4 46 20 54 144 69 122 14
134 10 143 -51 4 -30 2 -57 -4 -69 -16 -30 -5 -50 25 -44 21 4 24 9 19 26 -12
37 -17 95 -11 123 7 26 7 26 79 19 40 -3 99 -12 132 -19 60 -12 60 -12 65 -52
4 -31 9 -40 24 -40 28 0 45 33 25 48 -9 7 -21 22 -27 33 -7 13 -37 31 -73 44
-38 15 -64 30 -66 41 -6 23 -58 34 -113 25 l-40 -6 0 55 c0 53 1 55 26 55 25
0 26 2 20 39 l-6 39 78 7 c101 9 182 39 182 67 0 11 -10 28 -22 38 l-22 17 22
53 c44 106 25 131 -111 139 l-92 6 -17 85 c-9 47 -25 112 -35 145 l-19 60
-180 3 c-99 1 -183 0 -186 -4z m342 -54 c34 -126 38 -231 12 -299 -17 -43 -52
-75 -39 -35 41 128 38 134 -72 134 -107 0 -123 -12 -119 -93 3 -52 0 -62 -14
-65 -13 -2 -18 3 -18 19 0 12 -8 31 -17 41 -14 16 -15 21 -4 28 19 11 9 111
-22 217 -13 46 -23 84 -21 85 1 2 70 3 153 3 l151 1 10 -36z m-24 -233 c6 -17
-20 -90 -34 -95 -7 -2 -5 9 4 28 25 50 13 63 -52 58 -39 -3 -59 -10 -66 -22
-12 -21 -29 -11 -21 12 10 27 24 32 96 32 46 0 69 -4 73 -13z m-48 -48 c4 -22
-37 -61 -61 -57 -16 2 -21 9 -19 26 2 12 -2 22 -9 22 -21 0 -2 12 33 20 41 10
52 7 56 -11z m346 -44 c0 -22 -7 -53 -15 -70 l-14 -30 -103 -1 c-56 -1 -105 3
-108 8 -9 14 66 98 106 120 24 13 51 18 85 16 l50 -3 -1 -40z m-444 -5 c0 -5
-4 -10 -10 -10 -5 0 -10 5 -10 10 0 6 5 10 10 10 6 0 10 -4 10 -10z m144 -49
c4 -5 2 -21 -3 -34 -9 -22 -17 -26 -67 -29 -61 -3 -73 6 -55 41 8 15 24 21 59
24 26 2 50 4 54 5 4 1 9 -2 12 -7z m-164 -17 c0 -32 -20 -54 -50 -54 -34 0
-40 8 -30 35 11 30 80 47 80 19z m40 -378 c0 -3 -4 -8 -10 -11 -5 -3 -10 -1
-10 4 0 6 5 11 10 11 6 0 10 -2 10 -4z"/>
<path d="M5305 1661 c-16 -4 -40 -13 -52 -19 -12 -7 -28 -10 -35 -7 -8 3 -26
-8 -41 -24 -26 -29 -23 -47 5 -36 8 3 21 -2 29 -11 12 -15 12 -16 -9 -10 -13
5 -22 3 -22 -3 0 -6 -7 -11 -15 -11 -24 0 -206 -108 -221 -131 -9 -16 13 -10
39 11 41 32 150 80 183 80 16 0 35 5 41 11 6 6 46 12 89 13 44 2 53 1 22 -1
-32 -2 -58 -8 -58 -13 0 -6 -13 -10 -29 -10 -17 0 -33 -4 -36 -10 -3 -5 -15
-10 -26 -10 -11 0 -18 -4 -15 -9 4 -5 0 -12 -6 -15 -7 -3 -2 -3 12 0 14 3 34
-2 45 -10 20 -15 20 -15 -2 -16 -15 0 -23 -6 -23 -17 0 -14 -2 -15 -9 -5 -7
12 -19 12 -66 2 -42 -9 -54 -15 -46 -23 6 -6 26 -10 45 -9 38 3 50 -7 35 -28
-8 -13 -11 -12 -20 3 -17 29 -29 19 -29 -25 0 -50 -8 -63 -34 -63 -11 0 -21
-5 -23 -11 -3 -8 10 -10 42 -7 37 5 45 3 45 -11 0 -9 -4 -16 -9 -16 -5 0 -16
-13 -25 -30 -14 -28 -13 -30 5 -30 11 0 17 -4 14 -10 -3 -5 -34 -10 -68 -10
-72 0 -63 -13 21 -30 52 -11 71 -30 31 -30 -15 0 -19 -5 -15 -15 7 -19 -14
-55 -31 -55 -8 0 -13 -13 -13 -30 0 -22 5 -30 18 -31 13 0 12 -2 -5 -9 -15 -6
-21 -15 -17 -25 3 -8 1 -15 -6 -15 -7 0 -6 -6 4 -16 38 -37 6 -32 -39 7 -25
22 -35 27 -35 16 0 -9 20 -33 45 -53 24 -21 42 -40 40 -44 -7 -11 45 -55 101
-88 177 -103 438 -75 567 62 21 22 53 55 70 73 17 18 28 35 24 39 -3 4 -9 -1
-13 -10 -3 -9 -13 -16 -22 -16 -8 0 -24 -8 -35 -17 -20 -17 -20 -17 -12 2 10
25 27 137 21 142 -2 3 -13 -1 -25 -8 -27 -18 -39 -4 -17 20 15 16 15 22 4 41
-11 19 -11 23 0 27 10 4 8 9 -5 19 -17 12 -16 13 8 14 14 0 41 5 59 12 30 10
32 12 14 19 -10 4 -35 8 -54 8 -35 1 -36 2 -32 36 3 24 -1 42 -13 54 -9 11
-12 22 -7 25 5 3 15 -1 22 -9 7 -8 21 -15 30 -15 10 0 21 -6 23 -12 9 -21 6
25 -3 52 -5 17 -8 19 -9 8 -1 -10 -6 -18 -11 -18 -17 0 -32 52 -27 93 6 42 2
44 -26 20 -19 -17 -20 -17 -14 5 4 16 -1 25 -15 33 -15 8 -19 17 -15 39 5 24
2 29 -26 38 -52 16 1 14 67 -3 33 -9 61 -13 64 -10 3 2 -27 19 -66 37 -39 18
-71 38 -72 44 0 7 -9 14 -21 17 -12 3 -18 10 -14 16 25 42 -153 85 -250 62z
m203 -138 c-16 -2 -40 -2 -55 0 -16 2 -3 4 27 4 30 0 43 -2 28 -4z m-302 -519
c-3 -8 -1 -24 4 -35 7 -13 7 -19 0 -19 -18 0 -11 -15 13 -25 24 -11 25 -32 0
-27 -11 3 -14 -2 -10 -17 7 -27 -19 -49 -36 -31 -10 10 -9 12 6 7 26 -9 21 16
-8 43 -31 29 -32 53 -2 90 24 32 43 39 33 14z m121 -56 c-3 -8 -6 -5 -6 6 -1
11 2 17 5 13 3 -3 4 -12 1 -19z m320 -10 c-3 -7 -5 -2 -5 12 0 14 2 19 5 13 2
-7 2 -19 0 -25z m-60 -20 c-3 -8 -6 -5 -6 6 -1 11 2 17 5 13 3 -3 4 -12 1 -19z
m-270 -80 c-3 -8 -6 -5 -6 6 -1 11 2 17 5 13 3 -3 4 -12 1 -19z"/>
<path d="M17736 1635 c4 -10 -3 -27 -18 -43 -28 -30 -52 -71 -45 -78 6 -6 77
98 77 113 0 6 -4 15 -10 18 -6 3 -7 -1 -4 -10z"/>
<path d="M14040 1615 c-89 -17 -176 -44 -188 -58 -6 -7 -14 -26 -17 -42 -4
-17 -20 -52 -36 -80 -28 -51 -31 -80 -32 -277 0 -54 29 -186 44 -204 6 -8 30
-14 53 -14 40 0 309 -61 353 -80 12 -5 29 -25 37 -43 29 -71 98 -88 145 -37
l27 31 85 -21 c122 -30 269 -36 417 -16 68 9 139 23 158 31 34 14 44 37 22 51
-12 8 55 74 76 74 22 0 53 43 70 97 16 48 16 56 1 110 -9 32 -16 69 -16 83 1
38 -34 89 -66 96 -88 19 -283 108 -283 130 0 8 -6 14 -14 14 -8 0 -51 28 -97
61 -45 34 -96 67 -113 74 -76 32 -495 45 -626 20z m118 -196 c23 -9 29 -24 13
-33 -5 -3 -25 1 -45 9 -19 8 -47 15 -61 15 -26 0 -34 15 -12 23 14 5 73 -3
105 -14z m502 -225 c21 -47 19 -67 -4 -58 -12 5 -36 66 -36 93 0 26 22 7 40
-35z m-370 -364 c0 -5 -2 -10 -4 -10 -3 0 -8 5 -11 10 -3 6 -1 10 4 10 6 0 11
-4 11 -10z"/>
<path d="M18010 1585 c0 -8 7 -15 15 -15 8 0 15 4 15 9 0 5 -7 11 -15 15 -9 3
-15 0 -15 -9z"/>
<path d="M8196 1565 c-3 -9 -6 -28 -6 -41 0 -13 -9 -33 -20 -44 -11 -11 -20
-15 -20 -10 0 11 -39 13 -64 4 -14 -5 -16 -24 -15 -121 1 -107 2 -113 20 -108
10 4 19 2 19 -3 0 -11 -32 -40 -45 -41 -16 -2 -2 -298 16 -315 5 -6 9 -18 9
-29 0 -13 6 -18 23 -15 22 3 22 4 19 148 -2 80 -5 188 -7 240 -2 52 -3 110 -4
128 0 19 -6 35 -15 38 -17 6 -29 32 -21 44 3 5 19 4 35 -1 25 -9 34 -7 56 10
15 12 32 21 39 21 9 0 11 14 8 48 -6 52 -17 72 -27 47z"/>
<path d="M17765 1569 c-4 -6 -5 -13 -2 -16 7 -7 27 6 27 18 0 12 -17 12 -25
-2z"/>
<path d="M5643 1553 c9 -2 23 -2 30 0 6 3 -1 5 -18 5 -16 0 -22 -2 -12 -5z"/>
<path d="M8387 1510 c7 -26 60 -56 116 -64 62 -9 70 -26 13 -26 -58 0 -70 -18
-15 -22 37 -3 43 -6 46 -29 3 -22 -2 -27 -36 -37 -21 -7 -58 -13 -82 -13 -43
-2 -43 -2 -10 -8 48 -8 50 -28 5 -40 -44 -12 -73 2 -53 25 9 11 5 14 -24 14
-26 0 -39 -6 -47 -20 -6 -11 -16 -17 -25 -14 -17 7 -21 54 -5 54 6 0 9 12 8
27 -3 27 -2 28 71 35 41 4 76 10 79 13 3 3 -35 5 -85 5 -110 0 -120 -8 -125
-94 -2 -36 -8 -61 -15 -64 -29 -9 -7 143 23 165 10 7 36 13 58 13 59 0 77 16
29 23 -69 12 -88 8 -118 -23 l-28 -29 6 -129 c3 -72 1 -134 -3 -138 -5 -5 -6
-25 -1 -44 4 -19 2 -84 -5 -145 -10 -93 -9 -114 3 -133 21 -34 38 -37 113 -18
86 20 90 20 90 -3 0 -12 18 -32 48 -52 26 -17 53 -40 60 -50 17 -25 35 -24 27
0 -3 11 -1 22 5 26 6 3 10 -3 10 -14 0 -14 6 -21 19 -21 21 0 45 23 34 33 -3
4 0 7 8 7 8 0 20 -5 26 -11 19 -19 35 1 29 36 -6 28 -2 36 20 52 22 17 25 23
16 39 -9 16 -11 16 -12 3 0 -9 -6 -22 -14 -28 -18 -15 -32 8 -42 66 -5 35 -3
41 15 46 12 3 21 0 21 -6 0 -6 2 -8 5 -5 3 3 2 19 -1 37 -7 31 -7 32 -18 9
-14 -27 -46 -37 -46 -14 0 9 -6 16 -13 16 -10 0 -18 -30 -27 -102 -13 -110
-33 -171 -24 -78 12 135 16 158 30 184 14 27 13 30 -20 61 -20 19 -51 35 -77
41 -24 5 -44 14 -44 19 0 17 54 17 102 1 48 -16 65 -14 46 5 -7 7 -9 26 -6 47
6 32 4 35 -15 30 -19 -5 -20 -3 -12 12 6 11 20 26 32 34 12 9 19 16 14 16 -5
0 -4 6 1 13 6 6 13 51 17 98 8 109 -1 123 -76 125 -44 1 -58 7 -87 33 -40 37
-41 37 -34 11z m-162 -339 c-7 -41 -25 -48 -25 -10 0 24 19 63 27 56 3 -3 2
-24 -2 -46z m34 -122 c-12 -18 -31 -68 -40 -113 l-18 -81 2 71 c2 58 7 79 30
113 15 22 32 41 38 41 6 0 0 -14 -12 -31z m149 -14 c29 -27 52 -31 70 -13 20
20 26 0 7 -22 -15 -17 -17 -31 -12 -100 4 -47 2 -82 -3 -85 -6 -3 -10 -17 -10
-31 0 -13 -4 -24 -9 -24 -17 0 -22 19 -11 39 6 12 8 42 4 74 -6 48 -9 54 -27
49 -18 -5 -19 -2 -13 29 5 27 2 38 -14 52 -18 15 -29 57 -15 57 3 0 18 -11 33
-25z m19 -140 c9 -25 -2 -27 -22 -5 -17 18 -17 20 -1 20 9 0 19 -7 23 -15z
m-23 -44 c16 -17 16 -19 0 -25 -20 -8 -19 -8 -28 22 -9 27 5 29 28 3z m-194
-27 c0 -8 -4 -12 -10 -9 -5 3 -10 13 -10 21 0 8 5 12 10 9 6 -3 10 -13 10 -21z
m377 -66 c-3 -8 -6 -5 -6 6 -1 11 2 17 5 13 3 -3 4 -12 1 -19z"/>
<path d="M1083 1430 c0 -41 2 -58 4 -37 2 20 2 54 0 75 -2 20 -4 3 -4 -38z"/>
<path d="M3733 1430 c0 -41 2 -58 4 -37 2 20 2 54 0 75 -2 20 -4 3 -4 -38z"/>
<path d="M7003 1430 c0 -41 2 -58 4 -37 2 20 2 54 0 75 -2 20 -4 3 -4 -38z"/>
<path d="M7115 1475 c-14 -13 -25 -36 -25 -50 0 -32 33 -65 65 -65 28 0 65 32
65 55 0 11 -10 15 -37 14 -31 -2 -33 -3 -10 -6 31 -5 36 -28 9 -42 -27 -14
-61 -2 -68 24 -14 56 16 87 66 68 17 -6 30 -7 30 -2 0 9 -42 29 -61 29 -5 0
-21 -11 -34 -25z"/>
<path d="M9940 1479 c0 -18 -4 -20 -25 -15 -39 10 -65 -9 -65 -48 0 -42 17
-57 64 -54 l36 3 0 68 c0 37 -2 67 -5 67 -3 0 -5 -9 -5 -21z m-10 -48 c20 -38
-13 -71 -51 -51 -20 11 -23 27 -13 54 9 22 51 20 64 -3z"/>
<path d="M16230 1479 c0 -18 -4 -20 -25 -15 -39 10 -65 -9 -65 -48 0 -42 17
-57 64 -54 l36 3 0 68 c0 37 -2 67 -5 67 -3 0 -5 -9 -5 -21z m-10 -48 c20 -38
-13 -71 -51 -51 -20 11 -23 27 -13 54 9 22 51 20 64 -3z"/>
<path d="M16360 1475 c0 -23 -2 -24 -25 -13 -48 22 -88 -48 -49 -86 18 -19 50
-21 60 -5 4 8 9 7 15 -2 5 -9 9 14 9 59 0 39 -2 72 -5 72 -3 0 -5 -11 -5 -25z
m-6 -41 c10 -27 7 -43 -13 -54 -38 -20 -71 13 -51 51 13 23 55 25 64 3z"/>
<path d="M16413 1430 c0 -41 2 -58 4 -37 2 20 2 54 0 75 -2 20 -4 3 -4 -38z"/>
<path d="M292 1423 c0 -38 3 -53 5 -35 4 28 8 32 33 32 34 0 53 26 39 52 -6
12 -21 18 -44 18 l-35 0 2 -67z m63 32 c0 -14 -8 -21 -27 -23 -24 -3 -28 0
-28 23 0 23 4 26 28 23 19 -2 27 -9 27 -23z"/>
<path d="M3378 1483 c20 -4 22 -10 22 -64 0 -33 4 -59 10 -59 6 0 10 26 10 59
0 48 3 60 18 64 9 3 -5 5 -33 4 -27 0 -40 -2 -27 -4z"/>
<path d="M6467 1483 c19 -4 23 -12 26 -66 l3 -62 2 62 c2 55 4 62 25 66 12 2
0 4 -28 4 -27 0 -40 -2 -28 -4z"/>
<path d="M9540 1425 c0 -37 4 -65 10 -65 6 0 10 14 10 30 0 25 4 30 24 30 30
0 50 23 41 50 -5 16 -15 20 -46 20 l-39 0 0 -65z m68 33 c-2 -15 -11 -24 -25
-26 -19 -3 -23 1 -23 22 0 21 5 26 26 26 21 0 25 -4 22 -22z"/>
<path d="M10228 1478 c-3 -7 -2 -35 1 -63 5 -39 10 -51 26 -53 16 -3 18 -1 8
9 -7 7 -13 27 -13 45 0 18 6 35 13 37 10 4 10 6 0 6 -7 1 -13 8 -13 16 0 18
-16 20 -22 3z"/>
<path d="M15918 1483 c20 -4 22 -10 22 -64 0 -33 4 -59 10 -59 6 0 10 26 10
59 0 48 3 60 18 64 9 3 -5 5 -33 4 -27 0 -40 -2 -27 -4z"/>
<path d="M410 1450 c-24 -24 -25 -38 -4 -68 17 -25 56 -29 74 -7 15 18 7 19
-19 3 -15 -9 -23 -9 -35 1 -26 22 -19 31 24 31 33 0 40 3 40 20 0 18 -26 40
-49 40 -6 0 -20 -9 -31 -20z m70 -20 c0 -6 -16 -10 -35 -10 -38 0 -46 13 -18
29 19 10 53 -2 53 -19z"/>
<path d="M543 1462 c-20 -3 -23 -9 -23 -53 0 -27 5 -49 10 -49 6 0 10 18 10
40 0 27 5 42 17 49 22 12 15 18 -14 13z"/>
<path d="M600 1455 c-10 -12 -10 -18 0 -30 7 -8 18 -15 26 -15 19 0 28 -20 15
-33 -8 -8 -14 -8 -23 1 -17 17 -33 15 -18 -3 16 -19 44 -19 60 0 15 17 6 33
-26 45 -36 14 -31 34 7 26 27 -5 30 -4 19 9 -16 19 -44 19 -60 0z"/>
<path d="M707 1452 c-21 -23 -22 -56 -1 -76 32 -32 84 -11 84 34 0 53 -50 78
-83 42z m67 -18 c10 -27 7 -43 -13 -54 -38 -20 -71 13 -51 51 13 23 55 25 64
3z"/>
<path d="M843 1463 c-20 -4 -23 -11 -23 -54 0 -27 5 -49 10 -49 6 0 10 20 10
44 0 75 56 67 63 -9 l4 -40 1 46 c2 44 -11 70 -32 68 -6 -1 -21 -4 -33 -6z"/>
<path d="M957 1452 c-19 -21 -22 -45 -7 -73 12 -21 54 -26 66 -8 4 8 9 7 15
-2 6 -9 9 5 9 37 0 33 -4 51 -12 52 -7 0 -22 3 -33 7 -14 4 -27 0 -38 -13z
m67 -18 c10 -27 7 -43 -13 -54 -38 -20 -71 13 -51 51 13 23 55 25 64 3z"/>
<path d="M3492 1454 c-26 -18 -29 -56 -6 -78 39 -40 105 4 85 56 -8 22 -29 38
-50 38 -3 0 -17 -7 -29 -16z m66 -36 c2 -18 -3 -30 -17 -37 -29 -16 -51 -3
-51 28 0 35 8 43 40 39 19 -2 26 -10 28 -30z"/>
<path d="M3618 1459 c-21 -12 -24 -69 -6 -87 17 -17 54 -15 72 4 23 22 20 60
-6 78 -26 18 -36 19 -60 5z m60 -25 c22 -40 -24 -82 -55 -51 -24 23 -9 67 22
67 13 0 28 -7 33 -16z"/>
<path d="M3780 1455 c-10 -12 -10 -18 0 -30 7 -8 18 -15 26 -15 19 0 28 -20
15 -33 -8 -8 -14 -8 -23 1 -17 17 -33 15 -18 -3 16 -19 44 -19 60 0 15 17 6
33 -26 45 -36 14 -31 34 7 26 27 -5 30 -4 19 9 -16 19 -44 19 -60 0z"/>
<path d="M6583 1462 c-20 -3 -23 -9 -23 -53 0 -27 5 -49 10 -49 6 0 10 18 10
40 0 27 5 42 17 49 22 12 15 18 -14 13z"/>
<path d="M6647 1452 c-19 -21 -22 -45 -7 -73 12 -21 54 -26 66 -8 4 8 9 7 15
-2 6 -9 9 5 9 37 0 33 -4 51 -12 52 -7 0 -22 3 -33 7 -14 4 -27 0 -38 -13z
m67 -18 c10 -27 7 -43 -13 -54 -38 -20 -71 13 -51 51 13 23 55 25 64 3z"/>
<path d="M6887 1452 c-42 -46 0 -108 57 -86 9 3 16 11 16 16 0 6 -6 6 -15 -2
-17 -14 -55 -4 -55 16 0 10 12 14 40 14 44 0 52 16 22 43 -24 22 -45 21 -65
-1z m63 -17 c0 -10 -11 -15 -35 -15 -26 0 -33 3 -29 15 4 9 19 15 35 15 19 0
29 -5 29 -15z"/>
<path d="M7257 1452 c-21 -23 -22 -56 -1 -76 20 -20 58 -21 74 -1 14 17 0 21
-17 4 -14 -14 -53 -2 -53 17 0 10 12 14 40 14 44 0 52 16 24 44 -21 21 -47 20
-67 -2z m67 -17 c4 -12 -3 -15 -29 -15 -33 0 -43 8 -28 23 12 13 51 7 57 -8z"/>
<path d="M7381 1451 c-25 -25 -26 -39 -5 -69 11 -17 24 -21 55 -20 l39 1 0 49
c0 32 -4 48 -12 48 -7 0 -23 3 -35 6 -14 4 -28 -1 -42 -15z m64 -35 c0 -36
-26 -56 -49 -37 -16 14 -22 52 -9 65 4 4 19 6 33 4 20 -2 25 -8 25 -32z"/>
<path d="M7523 1462 c-20 -3 -23 -9 -23 -53 0 -27 5 -49 10 -49 6 0 10 18 10
40 0 27 5 42 17 49 22 12 15 18 -14 13z"/>
<path d="M9678 1462 c-15 -3 -18 -13 -16 -55 1 -47 2 -48 5 -12 2 22 11 46 20
52 19 15 15 21 -9 15z"/>
<path d="M9742 1454 c-26 -18 -29 -56 -6 -78 39 -40 105 4 85 56 -8 22 -29 38
-50 38 -3 0 -17 -7 -29 -16z m66 -36 c2 -18 -3 -30 -17 -37 -29 -16 -51 -3
-51 28 0 35 8 43 40 39 19 -2 26 -10 28 -30z"/>
<path d="M10117 1452 c-21 -23 -22 -56 -1 -76 20 -20 58 -21 74 -1 14 17 0 21
-17 4 -6 -6 -21 -8 -33 -4 -32 10 -25 69 9 73 13 2 27 -2 32 -9 4 -8 11 -11
14 -7 9 9 -24 38 -44 38 -10 0 -25 -8 -34 -18z"/>
<path d="M10305 1456 c-16 -12 -17 -16 -6 -30 7 -9 19 -16 26 -16 7 0 18 -7
25 -15 10 -12 9 -16 -5 -21 -9 -4 -21 -2 -28 5 -17 17 -31 13 -17 -5 8 -8 25
-14 39 -12 36 4 35 39 -1 56 -38 18 -36 36 3 28 27 -5 30 -4 19 9 -16 19 -31
19 -55 1z"/>
<path d="M16032 1454 c-26 -18 -29 -56 -6 -78 39 -40 105 4 85 56 -8 22 -29
38 -50 38 -3 0 -17 -7 -29 -16z m66 -36 c2 -18 -3 -30 -17 -37 -29 -16 -51 -3
-51 28 0 35 8 43 40 39 19 -2 26 -10 28 -30z"/>
<path d="M16467 1452 c-42 -46 0 -108 57 -86 9 3 16 11 16 16 0 6 -6 6 -15 -2
-17 -14 -55 -4 -55 16 0 10 12 14 40 14 44 0 52 16 22 43 -24 22 -45 21 -65
-1z m63 -17 c0 -10 -11 -15 -35 -15 -26 0 -33 3 -29 15 4 9 19 15 35 15 19 0
29 -5 29 -15z"/>
<path d="M16598 1462 c-15 -3 -18 -13 -16 -55 1 -47 2 -48 5 -12 2 22 11 46
20 52 19 15 15 21 -9 15z"/>
<path d="M6763 1449 c3 -8 11 -31 18 -51 7 -21 17 -38 23 -38 12 0 50 90 41
98 -2 3 -13 -15 -23 -39 l-19 -44 -12 37 c-7 21 -17 41 -23 44 -6 4 -8 1 -5
-7z"/>
<path d="M9980 1421 c0 -46 15 -61 58 -58 32 2 32 3 30 52 -1 42 -2 44 -5 13
-8 -72 -63 -79 -63 -8 0 22 -4 40 -10 40 -5 0 -10 -17 -10 -39z"/>
<path d="M17810 1417 c0 -14 31 -47 43 -47 14 0 7 27 -11 43 -22 21 -32 21
-32 4z"/>
<path d="M4916 1375 c-10 -7 -16 -18 -15 -23 2 -6 12 1 22 14 21 27 19 29 -7
9z"/>
<path d="M5010 1365 c0 -8 2 -15 4 -15 2 0 6 7 10 15 3 8 1 15 -4 15 -6 0 -10
-7 -10 -15z"/>
<path d="M17738 1373 c7 -3 16 -2 19 1 4 3 -2 6 -13 5 -11 0 -14 -3 -6 -6z"/>
<path d="M18053 1361 c-14 -11 -48 -22 -83 -26 -55 -6 -60 -9 -54 -27 3 -12 1
-24 -5 -28 -8 -5 -6 -14 8 -31 l19 -24 34 30 c78 70 118 110 118 117 0 13 -13
9 -37 -11z"/>
<path d="M2570 1320 c-11 -7 -2 -10 29 -10 48 0 51 4 11 13 -14 3 -32 2 -40
-3z"/>
<path d="M2666 1322 c-3 -5 6 -12 20 -15 15 -3 23 0 21 7 -5 14 -33 20 -41 8z"/>
<path d="M18096 1293 c-6 -14 -5 -15 5 -6 7 7 10 15 7 18 -3 3 -9 -2 -12 -12z"/>
<path d="M2166 1275 c4 -8 10 -12 15 -9 11 6 2 24 -11 24 -5 0 -7 -7 -4 -15z"/>
<path d="M2517 1273 c-2 -5 -1 -19 4 -33 4 -15 7 -18 8 -8 1 9 4 23 7 32 6 16
-11 23 -19 9z"/>
<path d="M2030 1263 c0 -5 8 -17 17 -28 14 -18 15 -18 9 -2 -3 10 -6 23 -6 28
0 5 -4 9 -10 9 -5 0 -10 -3 -10 -7z"/>
<path d="M12655 1250 c17 -19 17 -21 0 -40 -10 -11 -14 -20 -8 -20 5 0 18 9
28 20 17 19 17 21 0 40 -10 11 -23 20 -28 20 -6 0 -2 -9 8 -20z"/>
<path d="M2551 1244 c0 -11 3 -14 6 -6 3 7 2 16 -1 19 -3 4 -6 -2 -5 -13z"/>
<path d="M8640 1250 c0 -5 5 -10 11 -10 5 0 7 5 4 10 -3 6 -8 10 -11 10 -2 0
-4 -4 -4 -10z"/>
<path d="M2584 1238 c4 -20 36 -22 36 -3 0 14 -3 15 -14 6 -10 -8 -16 -9 -19
-1 -3 6 -4 5 -3 -2z"/>
<path d="M2660 1240 c0 -5 7 -10 15 -10 8 0 15 5 15 10 0 6 -7 10 -15 10 -8 0
-15 -4 -15 -10z"/>
<path d="M8674 1207 c-36 -54 -37 -58 -19 -77 10 -11 29 -18 52 -17 23 1 38
-5 44 -16 6 -10 21 -16 37 -16 21 1 23 3 6 6 -12 2 -26 15 -32 28 -7 14 -23
27 -39 31 -56 12 -57 13 -39 32 9 10 16 24 16 30 0 7 5 12 11 12 5 0 7 5 4 10
-10 16 -19 12 -41 -23z"/>
<path d="M2230 1206 c0 -9 5 -16 10 -16 6 0 10 4 10 9 0 6 -4 13 -10 16 -5 3
-10 -1 -10 -9z"/>
<path d="M305 1185 c-30 -29 -32 -68 -5 -95 25 -25 61 -26 91 0 29 24 18 26
-17 4 -20 -14 -30 -15 -50 -5 -21 9 -25 17 -22 48 4 46 26 62 68 46 17 -6 30
-7 30 -2 0 9 -42 29 -61 29 -5 0 -21 -11 -34 -25z"/>
<path d="M447 1162 c-10 -10 -17 -27 -17 -38 0 -35 17 -49 65 -50 l45 -2 0 50
c0 40 -3 49 -15 45 -8 -4 -17 -2 -20 3 -10 16 -41 11 -58 -8z m68 -36 c0 -36
-26 -56 -49 -37 -16 14 -22 52 -9 65 4 4 19 6 33 4 20 -2 25 -8 25 -32z"/>
<path d="M593 1172 c-20 -3 -23 -9 -23 -53 0 -27 5 -49 10 -49 6 0 10 18 10
40 0 27 5 42 17 49 22 12 15 18 -14 13z"/>
<path d="M658 1169 c-21 -12 -24 -69 -6 -87 17 -17 53 -15 68 3 15 18 7 19
-19 3 -15 -9 -23 -9 -35 1 -27 22 -18 31 29 31 49 0 55 10 25 40 -22 22 -37
24 -62 9z m62 -29 c0 -6 -16 -10 -35 -10 -38 0 -46 13 -18 29 19 10 53 -2 53
-19z"/>
<path d="M5863 1167 c-25 -11 -31 -27 -10 -27 19 0 52 26 41 32 -5 3 -19 1
-31 -5z"/>
<path d="M4862 1158 c3 -7 15 -15 27 -16 16 -3 22 1 19 10 -3 7 -15 15 -27 16
-16 3 -22 -1 -19 -10z"/>
<path d="M2592 1124 c-26 -18 -30 -69 -8 -99 14 -20 70 -25 87 -8 6 6 0 8 -19
5 -25 -3 -31 0 -39 25 -11 30 -1 72 20 85 9 5 8 8 -3 8 -9 0 -26 -7 -38 -16z"/>
<path d="M2670 1121 c0 -6 5 -13 10 -16 6 -3 10 1 10 9 0 9 -4 16 -10 16 -5 0
-10 -4 -10 -9z"/>
<path d="M8625 1110 c3 -5 11 -10 16 -10 6 0 7 5 4 10 -3 6 -11 10 -16 10 -6
0 -7 -4 -4 -10z"/>
<path d="M8140 1081 c0 -6 5 -13 10 -16 6 -3 10 1 10 9 0 9 -4 16 -10 16 -5 0
-10 -4 -10 -9z"/>
<path d="M8671 1065 c-18 -8 -45 -15 -59 -15 -17 0 -23 -3 -16 -10 10 -10 110
11 143 30 27 16 -29 12 -68 -5z"/>
<path d="M11300 1035 c-9 -10 -9 -15 -1 -15 6 0 11 4 11 9 0 5 8 12 18 14 14
4 14 5 1 6 -9 0 -22 -6 -29 -14z"/>
<path d="M18130 1009 c0 -5 5 -7 10 -4 6 3 10 8 10 11 0 2 -4 4 -10 4 -5 0
-10 -5 -10 -11z"/>
<path d="M3406 959 c19 -21 18 -21 -5 -40 -13 -10 -19 -19 -14 -19 5 0 19 10
31 23 22 23 22 24 4 40 -27 24 -39 21 -16 -4z"/>
<path d="M6485 960 c17 -19 17 -21 0 -40 -10 -11 -14 -20 -8 -20 5 0 18 9 28
20 17 19 17 21 0 40 -10 11 -23 20 -28 20 -6 0 -2 -9 8 -20z"/>
<path d="M9572 964 c17 -17 17 -19 -4 -41 -12 -13 -17 -23 -11 -23 5 0 19 11
32 23 22 25 20 31 -19 52 -11 6 -10 3 2 -11z"/>
<path d="M15946 959 c19 -21 18 -21 -5 -40 -13 -10 -19 -19 -14 -19 5 0 19 10
31 23 22 23 22 24 4 40 -27 24 -39 21 -16 -4z"/>
<path d="M8836 908 c-3 -13 -6 -38 -6 -56 0 -20 -6 -35 -16 -39 -12 -4 -13 -8
-3 -14 24 -14 37 11 38 71 1 64 -3 74 -13 38z"/>
<path d="M17710 920 c0 -5 5 -10 10 -10 6 0 10 5 10 10 0 6 -4 10 -10 10 -5 0
-10 -4 -10 -10z"/>
<path d="M2520 879 c0 -5 9 -9 20 -9 11 0 20 2 20 4 0 2 -9 6 -20 9 -11 3 -20
1 -20 -4z"/>
<path d="M2650 870 c0 -5 4 -10 9 -10 6 0 13 5 16 10 3 6 -1 10 -9 10 -9 0
-16 -4 -16 -10z"/>
<path d="M2738 873 c7 -3 16 -2 19 1 4 3 -2 6 -13 5 -11 0 -14 -3 -6 -6z"/>
<path d="M17790 770 c-11 -21 -20 -50 -20 -62 0 -16 10 -4 30 37 34 69 33 65
20 65 -5 0 -19 -18 -30 -40z"/>
<path d="M2420 774 c-22 -22 -31 -25 -66 -20 -38 5 -64 -5 -64 -25 0 -9 115
-3 131 7 7 4 19 -3 29 -15 44 -59 291 -68 353 -13 21 19 24 82 3 82 -9 0 -12
-7 -9 -19 3 -13 -2 -23 -15 -30 -23 -12 -193 -18 -210 -7 -7 4 -20 3 -29 -3
-22 -11 -68 21 -68 48 0 26 -29 24 -55 -5z"/>
<path d="M2605 760 c-3 -5 1 -10 10 -10 9 0 13 5 10 10 -3 6 -8 10 -10 10 -2
0 -7 -4 -10 -10z"/>
<path d="M2655 760 c-3 -5 3 -10 14 -10 12 0 21 5 21 10 0 6 -6 10 -14 10 -8
0 -18 -4 -21 -10z"/>
<path d="M315 670 c17 -19 17 -21 0 -40 -10 -11 -14 -20 -8 -20 5 0 18 9 28
20 17 19 17 21 0 40 -10 11 -23 20 -28 20 -6 0 -2 -9 8 -20z"/>
<path d="M18895 90 l29 -30 28 27 c15 15 28 28 28 30 0 2 -26 3 -57 3 l-57 0
29 -30z"/>
</g>
</svg>
